<svg width="1440" height="738" viewBox="0 0 1440 738" fill="none" xmlns="http://www.w3.org/2000/svg">
<rect width="1440" height="738" fill="url(#paint0_linear_6802_38261)"/>
<mask id="mask0_6802_38261" style="mask-type:alpha" maskUnits="userSpaceOnUse" x="0" y="0" width="1440" height="738">
<rect x="0.5" y="0.5" width="1439" height="737" fill="url(#paint1_linear_6802_38261)" stroke="#6D8F6A"/>
</mask>
<g mask="url(#mask0_6802_38261)">
<mask id="mask1_6802_38261" style="mask-type:luminance" maskUnits="userSpaceOnUse" x="-180" y="-531" width="1799" height="1799">
<path d="M-179.5 1267.5V-530.5H1618.5V1267.5H-179.5Z" fill="white" stroke="white"/>
</mask>
<g mask="url(#mask1_6802_38261)">
<path d="M-179.998 -522.005H359.702H1079.3H1619H1636.99V1285.99H-197.988V-522.005H-179.998Z" stroke="#6D8F6A"/>
<path d="M-179.998 -504.015L359.702 -514.989L1079.3 -493.041L1619 -504.015H1636.99V1285.99H-197.988V-504.015H-179.998Z" stroke="#6D8F6A"/>
<path d="M-179.998 -486.025L359.702 -507.973L1079.3 -463.897L1619 -485.845H1636.99V1286.17H-197.988V-485.845H-179.998V-486.025Z" stroke="#6D8F6A"/>
<path d="M-179.998 -468.035L359.702 -501.137L1079.3 -435.113L1619 -468.215H1636.99V1285.81H-197.988V-468.215H-179.998V-468.035Z" stroke="#6D8F6A"/>
<path d="M-179.998 -450.045L359.702 -494.121L1079.3 -405.97L1619 -450.045H1636.99V1285.99H-197.988V-450.045H-179.998Z" stroke="#6D8F6A"/>
<path d="M-179.998 -432.055L359.702 -487.104L1079.3 -377.006L1619 -432.055H1636.99V1285.99H-197.988V-432.055H-179.998Z" stroke="#6D8F6A"/>
<path d="M-179.998 -414.065L359.702 -480.088L1079.3 -347.861L1619 -413.885H1636.99V1286.17H-197.988V-413.885H-179.998V-414.065Z" stroke="#6D8F6A"/>
<path d="M-179.998 -396.075L359.702 -473.252L1079.3 -319.078L1619 -396.255H1636.99V1285.81H-197.988V-396.255H-179.998V-396.075Z" stroke="#6D8F6A"/>
<path d="M-179.998 -378.085L359.702 -466.236L1079.3 -289.934L1619 -378.085H1636.99V1285.99H-197.988V-378.085H-179.998Z" stroke="#6D8F6A"/>
<path d="M-179.998 -360.095L359.702 -459.22L1079.3 -260.97L1619 -360.095H1636.99V1285.99H-197.988V-360.095H-179.998Z" stroke="#6D8F6A"/>
<path d="M-179.998 -342.105L359.702 -452.204L1079.3 -232.006L1619 -342.105H1636.99V1285.99H-197.988V-342.105H-179.998Z" stroke="#6D8F6A"/>
<path d="M-179.998 -324.115L359.702 -445.188L1079.3 -202.862L1619 -323.935H1636.99V1286.17H-197.988V-323.935H-179.998V-324.115Z" stroke="#6D8F6A"/>
<path d="M-179.998 -306.125L359.702 -438.352L1079.3 -174.078L1619 -306.305H1636.99V1285.81H-197.988V-306.305H-179.998V-306.125Z" stroke="#6D8F6A"/>
<path d="M-179.998 -288.136L359.702 -431.336L1079.3 -144.935L1619 -288.136H1636.99V1285.99H-197.988V-288.136H-179.998Z" stroke="#6D8F6A"/>
<path d="M-179.998 -270.145L359.702 -424.319L1079.3 -115.971L1619 -270.145H1636.99V1285.99H-197.988V-270.145H-179.998Z" stroke="#6D8F6A"/>
<path d="M-179.998 -252.155L359.702 -417.303L1079.3 -86.8269L1619 -251.975H1636.99V1286.17H-197.988V-251.975H-179.998V-252.155Z" stroke="#6D8F6A"/>
<path d="M-179.998 -234.165L359.702 -410.467L1079.3 -58.0427L1619 -234.345H1636.99V1285.81H-197.988V-234.345H-179.998V-234.165Z" stroke="#6D8F6A"/>
<path d="M-179.998 -216.175L359.702 -403.451L1079.3 -28.8994L1619 -216.175H1636.99V1285.99H-197.988V-216.175H-179.998Z" stroke="#6D8F6A"/>
<path d="M-179.998 -198.185L359.702 -396.435L1079.3 0.0650516L1619 -198.185H1636.99V1285.99H-197.988V-198.185H-179.998Z" stroke="#6D8F6A"/>
<path d="M-179.998 -180.195L359.702 -389.419L1079.3 29.2083L1619 -180.015H1636.99V1286.17H-197.988V-180.015H-179.998V-180.195Z" stroke="#6D8F6A"/>
<path d="M-179.998 -162.205L359.702 -382.402L1079.3 58.1728L1619 -162.025H1636.99V1286.17H-197.988V-162.025H-179.998V-162.205Z" stroke="#6D8F6A"/>
<path d="M-179.998 -144.215L359.702 -375.566L1079.3 86.9565L1619 -144.395H1636.99V1285.81H-197.988V-144.395H-179.998V-144.215Z" stroke="#6D8F6A"/>
<path d="M-179.998 -126.225L359.702 -368.55L1079.3 116.1L1619 -126.225H1636.99V1285.99H-197.988V-126.225H-179.998Z" stroke="#6D8F6A"/>
<path d="M-179.998 -108.235L359.702 -361.534L1079.3 145.064L1619 -108.235H1636.99V1285.99H-197.988V-108.235H-179.998Z" stroke="#6D8F6A"/>
<path d="M-179.998 -90.2445L359.702 -354.518L1079.3 174.209L1619 -90.0646H1636.99V1286.17H-197.988V-90.0646H-179.998V-90.2445Z" stroke="#6D8F6A"/>
<path d="M-179.998 -72.2552L359.702 -347.682L1079.3 202.992L1619 -72.4351H1636.99V1285.81H-197.988V-72.4351H-179.998V-72.2552Z" stroke="#6D8F6A"/>
<path d="M-179.998 -54.2652L359.702 -340.666L1079.3 232.136L1619 -54.2652H1636.99V1285.99H-197.988V-54.2652H-179.998Z" stroke="#6D8F6A"/>
<path d="M-179.998 -36.2752L359.702 -333.65L1079.3 261.099L1619 -36.2752H1636.99V1285.99H-197.988V-36.2752H-179.998Z" stroke="#6D8F6A"/>
<path d="M-179.998 -18.2847L359.702 -326.633L1079.3 290.244L1619 -18.1048H1636.99V1286.17H-197.988V-18.1048H-179.998V-18.2847Z" stroke="#6D8F6A"/>
<path d="M-179.998 -0.295436L359.702 -319.798L1079.3 319.027L1619 -0.475347H1636.99V1285.81H-197.988V-0.475347H-179.998V-0.295436Z" stroke="#6D8F6A"/>
<path d="M-179.998 17.695L359.702 -312.781L1079.3 347.991L1619 17.5151H1636.99V1285.81H-197.988V17.5151H-179.998V17.695Z" stroke="#6D8F6A"/>
<path d="M-179.998 35.6846L359.702 -305.766L1079.3 377.135L1619 35.6846H1636.99V1285.99H-197.988V35.6846H-179.998Z" stroke="#6D8F6A"/>
<path d="M-179.998 53.6751L359.702 -298.749L1079.3 406.099L1619 53.6751H1636.99V1285.99H-197.988V53.6751H-179.998Z" stroke="#6D8F6A"/>
<path d="M-179.998 71.6651L359.702 -291.733L1079.3 435.243L1619 71.845H1636.99V1286.17H-197.988V71.845H-179.998V71.6651Z" stroke="#6D8F6A"/>
<path d="M-179.998 89.6553L359.702 -284.896L1079.3 464.027L1619 89.4754H1636.99V1285.81H-197.988V89.4754H-179.998V89.6553Z" stroke="#6D8F6A"/>
<path d="M-179.998 107.645L359.702 -277.881L1079.3 493.171L1619 107.645H1636.99V1285.99H-197.988V107.645H-179.998Z" stroke="#6D8F6A"/>
<path d="M-179.998 125.635L359.702 -270.864L1079.3 522.135L1619 125.635H1636.99V1285.99H-197.988V125.635H-179.998Z" stroke="#6D8F6A"/>
<path d="M-179.998 143.625L359.702 -263.849L1079.3 551.278L1619 143.805H1636.99V1286.17H-197.988V143.805H-179.998V143.625Z" stroke="#6D8F6A"/>
<path d="M-179.998 161.615L359.702 -257.012L1079.3 580.062L1619 161.435H1636.99V1285.81H-197.988V161.435H-179.998V161.615Z" stroke="#6D8F6A"/>
<path d="M-179.998 179.605L359.702 -249.996L1079.3 609.206L1619 179.605H1636.99V1285.99H-197.988V179.605H-179.998Z" stroke="#6D8F6A"/>
<path d="M-179.998 197.595L359.702 -242.98L1079.3 638.17L1619 197.595H1636.99V1285.99H-197.988V197.595H-179.998Z" stroke="#6D8F6A"/>
<path d="M-179.998 215.585L359.702 -235.964L1079.3 667.134L1619 215.585H1636.99V1285.99H-197.988V215.585H-179.998Z" stroke="#6D8F6A"/>
<path d="M-179.998 233.575L359.702 -228.948L1079.3 696.277L1619 233.755H1636.99V1286.17H-197.988V233.755H-179.998V233.575Z" stroke="#6D8F6A"/>
<path d="M-179.998 251.565L359.702 -222.111L1079.3 725.062L1619 251.386H1636.99V1285.81H-197.988V251.386H-179.998V251.565Z" stroke="#6D8F6A"/>
<path d="M-179.998 269.555L359.702 -215.096L1079.3 754.206L1619 269.555H1636.99V1285.99H-197.988V269.555H-179.998Z" stroke="#6D8F6A"/>
<path d="M-179.998 287.544L359.702 -208.08L1079.3 783.169L1619 287.544H1636.99V1285.99H-197.988V287.544H-179.998Z" stroke="#6D8F6A"/>
<path d="M-179.998 305.535L359.702 -201.063L1079.3 812.313L1619 305.715H1636.99V1286.17H-197.988V305.715H-179.998V305.535Z" stroke="#6D8F6A"/>
<path d="M-179.998 323.525L359.702 -194.228L1079.3 841.097L1619 323.345H1636.99V1285.81H-197.988V323.345H-179.998V323.525Z" stroke="#6D8F6A"/>
<path d="M-179.998 341.515L359.702 -187.211L1079.3 870.241L1619 341.515H1636.99V1285.99H-197.988V341.515H-179.998Z" stroke="#6D8F6A"/>
<path d="M-179.998 359.505L359.702 -180.195L1079.3 899.205L1619 359.505H1636.99V1285.99H-197.988V359.505H-179.998Z" stroke="#6D8F6A"/>
<path d="M1619 1259H1079.3H359.702H-179.998H-197.988V-548.99H1636.99V1259H1619Z" stroke="#6D8F6A"/>
<path d="M1619 1241.01L1079.3 1251.99L359.702 1230.04L-179.998 1241.01H-197.988V-548.99H1636.99V1241.01H1619Z" stroke="#6D8F6A"/>
<path d="M1619 1223.02L1079.3 1244.97L359.702 1200.9L-179.998 1222.84H-197.988V-548.99H1636.99V1223.02H1619Z" stroke="#6D8F6A"/>
<path d="M1619 1205.03L1079.3 1238.14L359.702 1172.11L-179.998 1205.21H-197.988V-548.99H1636.99V1205.03H1619Z" stroke="#6D8F6A"/>
<path d="M1619 1187.04L1079.3 1231.12L359.702 1142.97L-179.998 1187.04H-197.988V-548.99H1636.99V1187.04H1619Z" stroke="#6D8F6A"/>
<path d="M1619 1169.05L1079.3 1224.1L359.702 1114.01L-179.998 1169.05H-197.988V-548.99H1636.99V1169.05H1619Z" stroke="#6D8F6A"/>
<path d="M1619 1151.06L1079.3 1217.09L359.702 1084.86L-179.998 1150.88H-197.988V-548.99H1636.99V1151.06H1619Z" stroke="#6D8F6A"/>
<path d="M1619 1133.07L1079.3 1210.25L359.702 1056.08L-179.998 1133.25H-197.988V-548.99H1636.99V1133.07H1619Z" stroke="#6D8F6A"/>
<path d="M1619 1115.08L1079.3 1203.24L359.702 1026.93L-179.998 1115.08H-197.988V-548.99H1636.99V1115.08H1619Z" stroke="#6D8F6A"/>
<path d="M1619 1097.09L1079.3 1196.22L359.702 997.97L-179.998 1097.09H-197.988V-548.99H1636.99V1097.09H1619Z" stroke="#6D8F6A"/>
<path d="M1619 1079.1L1079.3 1189.2L359.702 969.006L-179.998 1079.1H-197.988V-548.99H1636.99V1079.1H1619Z" stroke="#6D8F6A"/>
<path d="M1619 1061.11L1079.3 1182.19L359.702 939.862L-179.998 1060.93H-197.988V-548.99H1636.99V1061.11H1619Z" stroke="#6D8F6A"/>
<path d="M1619 1043.12L1079.3 1175.35L359.702 910.898L-179.998 1043.12H-197.988V-548.99H1636.99V1043.12H1619Z" stroke="#6D8F6A"/>
<path d="M1619 1025.13L1079.3 1168.34L359.702 881.934L-179.998 1025.13H-197.988V-548.99H1636.99V1025.13H1619Z" stroke="#6D8F6A"/>
<path d="M1619 1007.14L1079.3 1161.32L359.702 852.97L-179.998 1007.14H-197.988V-548.99H1636.99V1007.14H1619Z" stroke="#6D8F6A"/>
<path d="M1619 989.155L1079.3 1154.3L359.702 823.827L-179.998 988.975H-197.988V-548.99H1636.99V989.155H1619Z" stroke="#6D8F6A"/>
<path d="M1619 971.165L1079.3 1147.47L359.702 795.043L-179.998 971.345H-197.988V-548.99H1636.99V971.165H1619Z" stroke="#6D8F6A"/>
<path d="M1619 953.175L1079.3 1140.45L359.702 765.899L-179.998 953.175H-197.988V-548.99H1636.99V953.175H1619Z" stroke="#6D8F6A"/>
<path d="M1619 935.185L1079.3 1133.43L359.702 736.935L-179.998 935.185H-197.988V-548.99H1636.99V935.185H1619Z" stroke="#6D8F6A"/>
<path d="M1619 917.195L1079.3 1126.42L359.702 707.791L-179.998 917.015H-197.988V-548.99H1636.99V917.195H1619Z" stroke="#6D8F6A"/>
<path d="M1619 899.205L1079.3 1119.4L359.702 678.827L-179.998 899.025H-197.988V-548.99H1636.99V899.205H1619Z" stroke="#6D8F6A"/>
<path d="M1619 881.215L1079.3 1112.57L359.702 650.043L-179.998 881.395H-197.988V-548.99H1636.99V881.215H1619Z" stroke="#6D8F6A"/>
<path d="M1619 863.225L1079.3 1105.55L359.702 620.899L-179.998 863.225H-197.988V-548.99H1636.99V863.225H1619Z" stroke="#6D8F6A"/>
<path d="M1619 845.235L1079.3 1098.53L359.702 591.936L-179.998 845.235H-197.988V-548.99H1636.99V845.235H1619Z" stroke="#6D8F6A"/>
<path d="M1619 827.245L1079.3 1091.52L359.702 562.792L-179.998 827.065H-197.988V-548.99H1636.99V827.245H1619Z" stroke="#6D8F6A"/>
<path d="M1619 809.255L1079.3 1084.68L359.702 534.008L-179.998 809.435H-197.988V-548.99H1636.99V809.255H1619Z" stroke="#6D8F6A"/>
<path d="M1619 791.265L1079.3 1077.67L359.702 504.864L-179.998 791.265H-197.988V-548.99H1636.99V791.265H1619Z" stroke="#6D8F6A"/>
<path d="M1619 773.275L1079.3 1070.65L359.702 475.9L-179.998 773.275H-197.988V-548.99H1636.99V773.275H1619Z" stroke="#6D8F6A"/>
<path d="M1619 755.285L1079.3 1063.63L359.702 446.756L-179.998 755.105H-197.988V-548.99H1636.99V755.285H1619Z" stroke="#6D8F6A"/>
<path d="M1619 737.295L1079.3 1056.8L359.702 417.972L-179.998 737.475H-197.988V-548.99H1636.99V737.295H1619Z" stroke="#6D8F6A"/>
<path d="M1619 719.305L1079.3 1049.78L359.702 389.008L-179.998 719.485H-197.988V-548.99H1636.99V719.305H1619Z" stroke="#6D8F6A"/>
<path d="M1619 701.315L1079.3 1042.76L359.702 359.865L-179.998 701.315H-197.988V-548.99H1636.99V701.315H1619Z" stroke="#6D8F6A"/>
<path d="M1619 683.325L1079.3 1035.75L359.702 330.901L-179.998 683.325H-197.988V-548.99H1636.99V683.325H1619Z" stroke="#6D8F6A"/>
<path d="M1619 665.335L1079.3 1028.73L359.702 301.757L-179.998 665.155H-197.988V-548.99H1636.99V665.335H1619Z" stroke="#6D8F6A"/>
<path d="M1619 647.345L1079.3 1021.9L359.702 272.973L-179.998 647.525H-197.988V-548.99H1636.99V647.345H1619Z" stroke="#6D8F6A"/>
<path d="M1619 629.355L1079.3 1014.88L359.702 243.829L-179.998 629.355H-197.988V-548.99H1636.99V629.355H1619Z" stroke="#6D8F6A"/>
<path d="M1619 611.365L1079.3 1007.86L359.702 214.865L-179.998 611.365H-197.988V-548.99H1636.99V611.365H1619Z" stroke="#6D8F6A"/>
<path d="M1619 593.375L1079.3 1000.85L359.702 185.901L-179.998 593.375H-197.988V-548.99H1636.99V593.375H1619Z" stroke="#6D8F6A"/>
<path d="M1619 575.385L1079.3 994.012L359.702 156.937L-179.998 575.565H-197.988V-548.99H1636.99V575.385H1619Z" stroke="#6D8F6A"/>
<path d="M1619 557.395L1079.3 986.996L359.702 127.794L-179.998 557.395H-197.988V-548.99H1636.99V557.395H1619Z" stroke="#6D8F6A"/>
<path d="M1619 539.405L1079.3 979.98L359.702 98.8296L-179.998 539.405H-197.988V-548.99H1636.99V539.405H1619Z" stroke="#6D8F6A"/>
<path d="M1619 521.415L1079.3 972.964L359.702 69.8658L-179.998 521.415H-197.988V-548.99H1636.99V521.415H1619Z" stroke="#6D8F6A"/>
<path d="M1619 503.425L1079.3 965.948L359.702 40.722L-179.998 503.245H-197.988V-548.99H1636.99V503.425H1619Z" stroke="#6D8F6A"/>
<path d="M1619 485.435L1079.3 959.111L359.702 11.938L-179.998 485.615H-197.988V-548.99H1636.99V485.435H1619Z" stroke="#6D8F6A"/>
<path d="M1619 467.445L1079.3 952.095L359.702 -17.2058L-179.998 467.445H-197.988V-548.99H1636.99V467.445H1619Z" stroke="#6D8F6A"/>
<path d="M1619 449.455L1079.3 945.079L359.702 -46.1698L-179.998 449.455H-197.988V-548.99H1636.99V449.455H1619Z" stroke="#6D8F6A"/>
<path d="M1619 431.465L1079.3 938.063L359.702 -75.3135L-179.998 431.285H-197.988V-548.99H1636.99V431.465H1619Z" stroke="#6D8F6A"/>
<path d="M1619 413.475L1079.3 931.227L359.702 -104.098L-179.998 413.655H-197.988V-548.99H1636.99V413.475H1619Z" stroke="#6D8F6A"/>
<path d="M1619 395.485L1079.3 924.211L359.702 -133.241L-179.998 395.485H-197.988V-548.99H1636.99V395.485H1619Z" stroke="#6D8F6A"/>
</g>
</g>
<mask id="mask2_6802_38261" style="mask-type:alpha" maskUnits="userSpaceOnUse" x="0" y="0" width="1440" height="738">
<rect width="1440" height="738" fill="#F3F5F6"/>
</mask>
<g mask="url(#mask2_6802_38261)">
<g filter="url(#filter0_f_6802_38261)">
<rect x="-469" y="42" width="2378" height="654" fill="url(#paint2_linear_6802_38261)"/>
</g>
</g>
<defs>
<filter id="filter0_f_6802_38261" x="-629" y="-118" width="2698" height="974" filterUnits="userSpaceOnUse" color-interpolation-filters="sRGB">
<feFlood flood-opacity="0" result="BackgroundImageFix"/>
<feBlend mode="normal" in="SourceGraphic" in2="BackgroundImageFix" result="shape"/>
<feGaussianBlur stdDeviation="80" result="effect1_foregroundBlur_6802_38261"/>
</filter>
<linearGradient id="paint0_linear_6802_38261" x1="424.5" y1="98.5" x2="1400.5" y2="1585.5" gradientUnits="userSpaceOnUse">
<stop stop-color="#365327"/>
<stop offset="1" stop-color="#B4AD97"/>
</linearGradient>
<linearGradient id="paint1_linear_6802_38261" x1="424.5" y1="98.5" x2="1400.5" y2="1585.5" gradientUnits="userSpaceOnUse">
<stop stop-color="#365327"/>
<stop offset="1" stop-color="#B4AD97"/>
</linearGradient>
<linearGradient id="paint2_linear_6802_38261" x1="232.015" y1="129.289" x2="822.806" y2="1806.64" gradientUnits="userSpaceOnUse">
<stop stop-color="#365327"/>
<stop offset="1" stop-color="#B4AD97"/>
</linearGradient>
</defs>
</svg>
