<svg width="143" height="72" viewBox="0 0 143 72" fill="none" xmlns="http://www.w3.org/2000/svg">
<path d="M52.3946 49.5674L52.3231 49.5495C50.8583 49.2816 49.9472 48.2455 49.9651 46.477V46.4412V34.2402H52.7161V46.1375C52.7697 47.3702 52.9305 47.4595 53.6272 47.6202L54.181 47.6917L52.609 49.4781L52.5018 49.6031L52.3946 49.5674Z" fill="#F3F5F6"/>
<path d="M69.187 40.9758C67.615 40.9758 66.9541 41.2795 65.6857 41.994V49.2289H62.9347V42.5121V42.4942C62.9347 41.7797 62.8096 41.4224 62.6667 41.2974C62.506 41.1366 62.238 40.9937 61.7735 40.9937C60.2194 40.9937 59.5584 41.2974 58.308 42.0119V49.2468H55.8427H55.5391V39.1716H58.308V39.9933C59.3083 39.4752 60.5231 38.8857 62.0236 38.8857H62.0415C63.3098 38.8857 64.3995 39.4216 65.0783 40.4399C66.436 39.6539 67.7043 38.8857 69.4729 38.8857C70.509 38.8857 71.7773 39.2252 72.5276 40.0112C73.2779 40.7972 73.4029 41.9583 73.4029 43.4589V49.211H70.4018V42.4764C70.4018 41.744 70.2767 41.4045 70.1338 41.2616C69.9552 41.1187 69.6694 40.9758 69.187 40.9758Z" fill="#F3F5F6"/>
<path d="M79.6904 49.5147C78.3685 49.5147 77.1538 49.086 76.2784 48.2107C75.4031 47.3353 74.8672 46.0313 74.8672 44.3521C74.8672 42.4406 75.5282 41.0473 76.6 40.1541C77.6718 39.2609 79.1188 38.8857 80.6729 38.8857C82.6737 38.8857 84.4243 39.4395 85.7463 40.0648L85.8534 40.1183V49.2468H83.0667V48.2643C82.1914 48.9788 81.2446 49.5147 79.6904 49.5147ZM80.5122 40.8329C78.7615 40.8329 77.8683 42.1905 77.8326 44.1377C77.8505 45.9955 78.9044 47.2103 80.3692 47.2103C81.2267 47.2103 82.4772 46.853 83.0667 46.3528V41.2795C82.2807 40.9937 81.1731 40.8329 80.5122 40.8329Z" fill="#F3F5F6"/>
<path d="M45.8198 49.2101L40.3356 37.8309L37.4953 43.6723H42.8901L42.8187 43.9046C42.5686 44.6013 42.4078 45.0657 42.0148 45.2979C41.6039 45.5123 41.1395 45.4945 40.4071 45.4945H36.6021L34.7978 49.2101H32.2969L39.621 34.3296L39.6746 34.2402H42.1934L49.2854 49.2101H45.8198Z" fill="#F3F5F6"/>
<path d="M107.737 49.2108H107.559V40.0109L110.327 38.9033V49.2108H107.737Z" fill="#F3F5F6"/>
<path d="M87.8906 49.211V39.1716H90.6595V39.9754C91.8743 39.1537 92.9461 38.8857 94.3395 38.8857C94.4466 38.8857 94.5538 38.8857 94.661 38.8857H94.8575L94.3931 41.1902L94.2323 41.1544C93.9465 41.1008 93.6428 41.083 93.3034 41.083C92.3744 41.083 91.3383 41.3152 90.6416 41.8154V49.1932H87.8906V49.211Z" fill="#F3F5F6"/>
<path d="M99.4287 49.514C98.1068 49.514 96.892 49.0853 96.0167 48.21C95.1414 47.3346 94.6055 46.0306 94.6055 44.3514V44.3335C94.6055 42.4221 95.2664 41.0287 96.3383 40.1355C97.4101 39.2423 98.8571 38.8672 100.411 38.8672C102.394 38.8672 104.163 39.421 105.485 40.0462L105.592 40.0998V49.2282H102.823V48.2457C101.948 48.996 100.983 49.5319 99.4644 49.5319H99.4287V49.514ZM100.25 40.8322C98.5177 40.8322 97.6066 42.1899 97.5709 44.137C97.6066 46.0127 98.6427 47.2096 100.108 47.2096C100.965 47.2096 102.215 46.8523 102.823 46.3521V41.2788C102.019 40.993 100.911 40.8322 100.25 40.8322Z" fill="#F3F5F6"/>
<path d="M108.915 38.4203C107.933 38.4203 107.147 37.6879 107.129 36.759C107.129 35.8301 107.933 35.0977 108.915 35.0977C109.898 35.0977 110.684 35.8301 110.702 36.759C110.684 37.6879 109.898 38.4203 108.915 38.4203Z" fill="#F3F5F6"/>
<path d="M107.02 26.6125V10.535V10.1777H110.306V26.6125H107.02Z" fill="#F3F5F6"/>
<path d="M70.3828 26.6131V14.8766V14.6265L73.6698 13.6797V26.6131H70.3828Z" fill="#F3F5F6"/>
<path d="M62.9855 24.4157H67.1478V26.6308H66.8084H66.5761H54H53.9643C52.8925 26.6308 52.16 26.4343 51.6777 25.8627C51.1954 25.291 51.0168 24.4872 50.7309 23.326C50.3915 21.8255 50.2129 20.9323 49.9628 19.8783C49.802 19.1459 49.6412 18.6457 49.4447 18.3777C49.2482 18.1276 49.016 18.0026 48.4265 18.0026H47.6762L49.4626 26.613H37.7082L37.7261 26.5772C36.0111 26.4522 34.85 25.827 34.1354 24.8444C33.3494 23.7726 33.1172 22.3614 33.1172 20.8429V18.5742V18.4849L33.1708 18.4135C34.1533 16.7164 35.8146 14.7692 35.8146 14.7692L36.422 14.0547V21.1645C36.422 22.5757 36.6006 23.3975 36.94 23.7905C37.2795 24.2013 37.8868 24.38 39.0301 24.38H45.7826L44.0499 15.8053H44.4786H48.498C50.7845 15.7875 51.9635 17.4488 52.3923 19.521C52.6424 20.6464 52.9818 22.1113 53.1425 22.8437C53.3212 23.6654 53.4284 24.0942 53.5355 24.2013C53.607 24.3085 53.8035 24.38 54.4823 24.3621H57.6621C56.8761 23.6476 56.4295 22.7901 56.4474 21.5932C56.4474 19.9855 57.3584 18.8065 58.6267 18.0919C59.8951 17.3774 61.5564 17.0558 63.182 17.0558C64.3968 17.0558 65.6294 17.2523 66.7012 17.6453L66.9334 17.7346V17.9669V19.5925V19.914L66.6297 19.9498L66.3975 19.9676L66.2903 19.8604C65.683 19.2709 64.6826 18.9137 63.182 18.9137C61.9316 18.9137 61.0741 19.128 60.5382 19.5568C60.0201 19.9676 59.7522 20.5929 59.7522 21.5932C59.7522 22.5936 60.0558 23.2546 60.5918 23.7012C61.092 24.1656 61.9137 24.4157 62.9855 24.4157Z" fill="#F3F5F6"/>
<path d="M69.5084 32.008L69.3477 31.9008V29.1677L69.6156 29.1141L69.9729 29.0426L70.0979 29.257C70.7946 30.3824 72.1701 30.9362 73.4027 30.9362C74.3138 30.9362 75.0998 30.7576 75.6715 30.2395C76.2252 29.7393 76.6361 28.8461 76.6361 27.2563V21.6113V21.2719H79.9409V21.6113C79.9409 23.0225 80.1731 23.6656 80.5661 23.9872C80.9592 24.3087 81.6916 24.4159 82.8527 24.4159H85.1572C85.1572 24.3087 85.1393 24.1837 85.1393 24.0765C85.1393 22.3616 85.8538 21.0754 86.9257 20.2536C87.9975 19.4319 89.3909 19.0389 90.7664 19.0389C92.1419 19.0389 93.5353 19.414 94.5893 20.2358C95.6611 21.0575 96.3935 22.3437 96.3935 24.0586C96.3935 24.1837 96.3935 24.3087 96.3756 24.4338H99.2874C100.413 24.4338 100.717 24.2015 101.056 23.7371C101.413 23.2548 101.592 22.3794 101.592 20.9682V10.5357V10.1963H104.915V20.8789C104.915 22.3973 104.7 23.7907 103.932 24.8625C103.2 25.8986 101.949 26.5417 100.109 26.631V26.6489H95.7147C94.7143 28.2745 92.785 29.0605 90.7843 29.0605C88.7835 29.0605 86.8542 28.2745 85.836 26.6489H82.4418V26.631C81.4772 26.6132 80.6555 26.4881 79.9588 26.2737V27.6671C79.9588 29.4178 79.2085 30.7933 78.0652 31.6865C76.9219 32.5975 75.3678 33.0263 73.76 33.0263C71.9915 33.0084 70.2766 32.5439 69.5084 32.008ZM90.4806 27.0776C91.3916 27.0776 91.9097 26.7561 92.2491 26.238C92.5885 25.72 92.7314 24.934 92.7314 24.0586C92.7314 23.1833 92.5706 22.3973 92.2134 21.8614C91.8561 21.3255 91.3559 21.0039 90.4627 21.0039C89.5874 21.0218 89.0872 21.3255 88.7299 21.8614C88.3905 22.3973 88.2297 23.1833 88.2297 24.0586C88.2297 24.934 88.3726 25.72 88.7121 26.238C89.0872 26.7561 89.5695 27.0597 90.4806 27.0776Z" fill="#F3F5F6"/>
<path d="M37.4414 29.5786C37.4414 28.6497 38.2631 27.9173 39.2457 27.8994C40.2282 27.8994 41.0499 28.6318 41.0499 29.5786C41.0499 30.5075 40.2282 31.24 39.2457 31.24C38.2453 31.24 37.4414 30.5075 37.4414 29.5786Z" fill="#F3F5F6"/>
<path d="M41.6758 29.5786C41.6758 28.6497 42.4975 27.9173 43.48 27.8994C44.4625 27.8994 45.2843 28.6318 45.2843 29.5786C45.2843 30.5075 44.4625 31.24 43.48 31.24C42.4975 31.24 41.6758 30.5075 41.6758 29.5786Z" fill="#F3F5F6"/>
<path d="M70.9911 11.5711C70.7946 11.4103 70.5624 11.2495 70.3302 11.1066C70.1515 10.9816 69.9729 10.8565 69.7764 10.7493C69.5442 10.5886 69.2941 10.4456 69.0261 10.3027C68.8475 10.1956 68.651 10.0884 68.4723 9.98119C68.2044 9.83828 67.9543 9.69536 67.6863 9.57032C67.5255 9.49886 67.3648 9.40954 67.204 9.33809C66.9182 9.19518 66.6324 9.07013 66.3287 8.92722C61.5412 6.78356 55.6997 5.39018 52.2162 4.78281C50.6264 4.49699 48.6256 5.21154 47.6967 6.64065C47.3573 7.12297 47.6074 7.48025 48.054 7.49812C62.345 7.48025 68.6688 10.7672 70.3659 11.8569L70.9911 11.5711Z" fill="#F3F5F6"/>
<path d="M91.7462 1.40706C90.5493 1.12124 89.3882 0.906868 88.2985 0.746094C75.8831 3.56858 68.7912 8.71336 67.6836 9.57083C67.9516 9.71374 68.2195 9.83879 68.4696 9.9817C77.2407 3.89013 89.6382 1.72861 91.7462 1.40706Z" fill="#F3F5F6"/>
<path d="M97.643 3.30072C96.3568 2.76481 95.0527 2.31821 93.7844 1.96094C77.4211 4.83701 69.9183 9.69597 69.043 10.3033C69.2931 10.4463 69.5432 10.607 69.7932 10.7499C81.762 4.76556 96.7498 3.37218 97.643 3.30072Z" fill="#F3F5F6"/>
<path d="M67.1482 0.388661C66.5051 -0.165118 65.6119 -0.0757964 64.6651 0.335072C64.4329 0.442255 64.4686 0.585166 64.7009 0.781668C66.7731 2.4966 68.22 4.01502 69.8635 6.0515C70.0958 5.87286 70.3458 5.71209 70.5959 5.53345C69.5777 3.63988 68.5059 1.76418 67.1482 0.388661Z" fill="#F3F5F6"/>
<path d="M62.8636 1.10341C61.8811 0.442448 60.0947 0.567494 59.3087 1.3535C59.0765 1.56787 59.1122 1.71078 59.398 1.83583C64.0783 3.90803 67.276 6.01597 68.6336 6.94489C68.848 6.78411 69.0623 6.60547 69.2946 6.44469C67.794 4.85481 64.9179 2.49679 62.8636 1.10341Z" fill="#F3F5F6"/>
<path d="M57.0377 2.40703C55.9838 2.06762 54.644 2.51422 53.9652 3.21091C53.7329 3.461 53.8401 3.6575 54.2331 3.74682C61.5037 5.26525 65.4873 7.31958 67.0772 8.23064C67.3452 7.99841 67.5953 7.78405 67.8632 7.55182C64.5941 5.44388 59.5744 3.35382 57.0377 2.40703Z" fill="#F3F5F6"/>
<path d="M70.5953 5.53384C73.8644 3.31872 77.8481 1.28224 81.8317 0.121094C82.9035 0.121094 84.4755 0.192549 86.3512 0.389051C85.0293 0.56769 76.8298 1.9968 67.2191 9.32097C66.9333 9.17806 66.6474 9.05301 66.3438 8.9101C66.576 8.67787 66.8439 8.44564 67.094 8.21341C67.362 7.98118 67.6121 7.76682 67.88 7.53459C68.1301 7.33808 68.3624 7.14158 68.6303 6.94508C68.8447 6.78431 69.0591 6.60566 69.2913 6.44489C69.4878 6.30198 69.6843 6.15907 69.8808 6.03402C70.0952 5.87325 70.3452 5.69461 70.5953 5.53384Z" fill="#F3F5F6"/>
<path d="M70.9908 11.5716C87.9793 5.49794 102.645 7.14142 104.11 7.23074C102.663 6.06959 101.109 5.08708 99.5193 4.2832C81.7269 5.90881 71.5981 10.5177 70.3477 11.1072C70.562 11.268 70.7764 11.4109 70.9908 11.5716Z" fill="#F3F5F6"/>
<path d="M143 59.1787H127.816C127.816 59.1787 126.798 59.1787 126.422 59.1966C113.936 59.3395 96.7505 60.3756 77.0825 67.146C75.6891 67.6283 71.5447 69.1467 71.5447 69.1467C71.5447 69.1467 67.3824 67.6283 65.989 67.146C46.3745 60.4113 30.6722 59.3395 18.2032 59.1966H18.0782H0V61.5725H18.0782H18.239C30.6901 61.7154 46.3924 62.7693 65.989 69.504C67.3824 69.9863 71.5447 71.5048 71.5447 71.5048C71.5447 71.5048 75.7069 69.9863 77.0825 69.504C96.7684 62.7336 113.953 61.6975 126.422 61.5546C126.815 61.5546 127.816 61.5367 127.816 61.5367H143V59.1787Z" fill="#F3F5F6"/>
</svg>
