<svg width="165" height="59" viewBox="0 0 165 59" fill="none" xmlns="http://www.w3.org/2000/svg">
<path d="M150.829 23.9663C152.687 25.0371 154.496 26.0793 156.306 27.1228C157.64 27.8927 158.981 28.6528 160.307 29.4373C162.728 30.8694 164.132 33.0018 164.597 35.7623C164.648 36.0642 164.65 36.3768 164.65 36.6845C164.654 39.771 164.664 42.8578 164.648 45.9443C164.638 48.038 163.847 49.8405 162.501 51.4172C161.779 52.2623 160.887 52.8859 159.929 53.4339C157.581 54.7766 155.238 56.1288 152.899 57.489C151.361 58.3841 149.705 58.7938 147.934 58.6994C146.637 58.63 145.397 58.2956 144.265 57.6483C141.248 55.9226 138.239 54.1837 135.238 52.43C134.798 52.1727 134.471 52.1213 133.992 52.4034C131.057 54.1329 128.094 55.8141 125.144 57.5195C123.618 58.4016 121.974 58.7916 120.223 58.7C118.707 58.6205 117.32 58.1138 116.014 57.3486C113.635 55.9555 111.224 54.6169 108.864 53.194C106.074 51.5123 104.571 49.0259 104.53 45.7414C104.494 42.7923 104.523 39.8427 104.522 36.8932C104.522 34.7835 105.25 32.9447 106.589 31.3343C107.287 30.494 108.145 29.8533 109.09 29.311C112.045 27.6149 114.988 25.8978 117.947 24.2083C118.266 24.026 118.353 23.8228 118.352 23.4798C118.342 19.9816 118.299 16.4826 118.36 12.9855C118.415 9.83499 119.791 7.33296 122.476 5.66219C124.626 4.32402 126.854 3.11077 129.05 1.84628C129.629 1.51328 130.207 1.17883 130.801 0.874647C131.741 0.393258 132.744 0.147109 133.797 0.0423514C135.747 -0.151933 137.522 0.331518 139.195 1.30171C141.535 2.65881 143.871 4.02312 146.227 5.35245C148.158 6.44221 149.516 8.00513 150.303 10.0706C150.647 10.9744 150.822 11.917 150.825 12.8804C150.836 16.3785 150.829 19.8767 150.829 23.3748C150.829 23.5617 150.829 23.749 150.829 23.9663ZM134.56 46.577C134.629 46.5578 134.648 46.5566 134.662 46.5484C137.627 44.8393 140.614 43.1657 143.549 41.406C145.168 40.4352 146.025 38.94 146.027 37.0115C146.029 33.7377 146.022 30.4637 146.034 27.1899C146.036 26.8577 145.938 26.6735 145.643 26.5046C142.805 24.8828 139.99 23.2202 137.141 21.6176C135.427 20.6532 133.662 20.6925 131.953 21.6643C129.156 23.2546 126.378 24.8784 123.583 26.4722C123.261 26.6562 123.136 26.8544 123.138 27.2317C123.154 30.454 123.15 33.6766 123.146 36.899C123.144 38.9721 124.091 40.4941 125.84 41.5453C126.617 42.0125 127.411 42.453 128.196 42.9061C130.316 44.1287 132.435 45.3514 134.56 46.577ZM118.346 29.4925C118.117 29.6141 117.98 29.6812 117.849 29.7572C115.714 30.9908 113.589 32.2409 111.443 33.4547C110.014 34.2632 109.278 35.4752 109.263 37.0937C109.237 39.9229 109.24 42.7526 109.262 45.5819C109.273 47.145 109.982 48.3405 111.338 49.128C113.825 50.5726 116.31 52.0215 118.813 53.4383C120.047 54.1364 121.351 54.1656 122.589 53.4743C124.891 52.1892 127.161 50.8467 129.443 49.526C129.535 49.4725 129.615 49.3964 129.721 49.3151C129.582 49.221 129.487 49.1475 129.384 49.0883C127.44 47.9693 125.499 46.846 123.55 45.7364C121.983 44.8449 120.716 43.6483 119.784 42.1041C118.805 40.4817 118.347 38.7144 118.346 36.8247C118.344 34.5953 118.345 32.3662 118.345 30.1369C118.346 29.9504 118.346 29.7642 118.346 29.4925ZM139.424 49.3165C139.604 49.4373 139.737 49.5375 139.881 49.6203C142.06 50.8765 144.24 52.1316 146.422 53.3843C147.75 54.1471 149.102 54.1573 150.423 53.4072C152.937 51.9791 155.438 50.5246 157.934 49.0636C159.237 48.3006 159.9 47.1252 159.912 45.6272C159.937 42.765 159.941 39.9021 159.911 37.0402C159.894 35.4869 159.197 34.2944 157.824 33.5097C155.893 32.4053 153.973 31.2818 152.046 30.169C151.667 29.9498 151.281 29.7419 150.829 29.4904C150.829 29.7592 150.829 29.9434 150.829 30.1278C150.829 32.4247 150.835 34.7213 150.825 37.0181C150.823 37.4779 150.797 37.9432 150.722 38.396C150.207 41.5126 148.627 43.9253 145.907 45.5588C144.719 46.2724 143.51 46.9505 142.31 47.6449C141.364 48.1924 140.418 48.7404 139.424 49.3165ZM123.147 21.1922C123.353 21.0891 123.489 21.0288 123.617 20.9551C125.606 19.8141 127.581 18.6488 129.585 17.5343C132.902 15.689 136.257 15.7082 139.575 17.5115C141.604 18.6142 143.58 19.8153 145.58 20.9701C145.706 21.0426 145.842 21.0969 146.002 21.1733C146.013 21.0277 146.026 20.9432 146.026 20.8584C146.027 18.1505 146.028 15.4427 146.024 12.7346C146.023 12.5488 145.991 12.3599 145.95 12.1777C145.686 11.0062 145 10.149 143.97 9.55549C141.523 8.14631 139.079 6.73343 136.627 5.3331C135.264 4.55452 133.89 4.57181 132.526 5.34484C131.797 5.75831 131.073 6.18104 130.347 6.60048C128.584 7.61903 126.808 8.61762 125.062 9.66355C123.811 10.4123 123.149 11.5391 123.148 13.0191C123.146 15.5384 123.147 18.0577 123.147 20.5772C123.147 20.759 123.147 20.9409 123.147 21.1922Z" fill="white"/>
<path d="M28.8216 26.8007C28.8083 26.11 28.8095 25.4442 28.7764 24.78C28.7611 24.4771 28.7169 24.1644 28.6193 23.8788C28.212 22.6865 26.9041 22.2658 25.8673 22.9773C25.7557 23.0539 25.6505 23.1397 25.5054 23.249C25.0358 22.86 24.5657 22.471 24.067 22.0582C24.6219 21.4393 25.3004 21.1187 26.0675 20.9723C26.9622 20.8015 27.8422 20.8721 28.6726 21.2582C29.9069 21.8318 30.5877 22.8322 30.7608 24.1632C30.8376 24.7541 30.8269 25.3573 30.8376 25.9552C30.8507 26.6943 30.9553 26.8109 31.6945 26.8412C31.7618 26.8439 31.8287 26.857 31.9559 26.8727C31.9613 27.1409 31.9689 27.4088 31.9716 27.6768C31.9742 27.9495 31.9722 28.2222 31.9722 28.485C31.5933 28.6105 12.8304 28.6573 11.922 28.5377C11.922 26.5988 11.922 24.652 11.922 22.7209C10.384 22.265 9.16126 23.1377 9.13183 24.6839C9.11063 25.7982 9.12833 26.9132 9.12627 28.0279C9.12586 28.1954 9.11207 28.3632 9.10302 28.5636C8.90688 28.5729 8.74018 28.5875 8.57347 28.5875C6.94428 28.5891 5.31509 28.5891 3.6859 28.5883C1.62924 28.5873 0.0589134 27.0021 0.00190411 24.892C-0.0240279 23.9339 0.213477 23.0636 0.80271 22.299C0.844284 22.2451 0.890179 22.1938 0.938956 22.1463C0.962418 22.1234 0.9972 22.1125 1.08241 22.0654C1.53272 22.4365 2.00093 22.8226 2.46895 23.2082C2.33599 23.553 2.16147 23.8726 2.0917 24.2134C1.92067 25.048 2.05486 25.8346 2.72209 26.4226C2.95219 26.6253 3.28889 26.8062 3.58382 26.8179C4.72915 26.8632 5.87736 26.8365 7.08258 26.8365C7.0904 26.6307 7.09843 26.4495 7.10399 26.2684C7.12704 25.4993 7.07579 24.7195 7.18652 23.9636C7.43122 22.293 8.74409 21.0732 10.4161 20.9507C11.5069 20.8709 12.6053 20.8951 13.7004 20.876C13.7646 20.875 13.8294 20.9021 13.9476 20.9279C13.9476 22.8796 13.9476 24.8253 13.9476 26.8048C16.2582 26.8048 18.5112 26.8048 20.8031 26.8048C20.7623 25.9632 20.7553 25.1293 20.6726 24.3027C20.5928 23.5042 20.0527 22.7933 19.0965 22.6503C18.6297 22.5805 18.2161 22.7013 17.8326 22.9532C17.7188 23.028 17.6196 23.1247 17.4599 23.2554C16.9878 22.865 16.5091 22.4688 16.0125 22.058C16.549 21.4578 17.1868 21.1335 17.9026 20.9894C19.0871 20.7511 20.2223 20.8881 21.2291 21.6132C22.2141 22.3226 22.6834 23.3181 22.741 24.5121C22.7667 25.0424 22.7365 25.5753 22.7486 26.1067C22.7595 26.5761 22.9888 26.8326 23.4247 26.8346C25.1739 26.8428 26.9233 26.8375 28.6724 26.8344C28.7371 26.8346 28.8019 26.8054 28.8216 26.8007Z" fill="white"/>
<path d="M83.018 26.7127C83.4094 26.8621 85.1178 26.8948 85.7692 26.7767C85.7079 26.6318 85.6447 26.4949 85.591 26.3546C85.059 24.9641 85.1596 23.6397 86.0113 22.3966C86.4015 21.8272 86.937 21.4339 87.5707 21.1844C88.5613 20.7946 89.5773 20.7664 90.5772 21.1245C91.8279 21.5724 92.6377 22.4508 92.9248 23.7616C93.2021 25.0277 93.0316 26.2167 92.1956 27.2521C91.5111 28.0998 90.6014 28.56 89.5236 28.5788C87.5528 28.6129 85.5807 28.5868 83.6093 28.5899C83.1135 28.5907 82.7218 28.3802 82.3913 28.0297C82.3217 27.956 82.2548 27.8796 82.1447 27.7582C81.3363 28.6113 80.2988 28.6057 79.2372 28.5965C76.6144 28.5732 73.9914 28.587 71.3683 28.5909C70.9931 28.5915 70.6206 28.6086 70.3072 28.3248C69.91 30.6793 68.787 31.7128 66.4141 31.9096C66.4141 31.3679 66.4141 30.8274 66.4141 30.251C66.4976 30.2189 66.6022 30.1645 66.7133 30.1382C67.6467 29.9169 68.1997 29.2485 68.2264 28.2688C68.2429 27.6693 68.2299 27.0687 68.2299 26.4688C68.2299 25.0458 68.2299 23.6229 68.2299 22.2001C68.2299 22.0161 68.2299 21.8321 68.2299 21.6212C68.9328 21.6212 69.5749 21.6212 70.2874 21.6212C70.2874 21.82 70.2874 22.0019 70.2874 22.1841C70.2874 23.487 70.2872 24.7898 70.2878 26.0928C70.2878 26.2128 70.28 26.3344 70.2967 26.4521C70.329 26.6783 70.4413 26.8366 70.6953 26.8372C71.3947 26.8384 72.0942 26.8376 72.8434 26.8376C72.8434 25.1596 72.8434 23.5218 72.8434 21.8227C73.4779 21.7786 74.0644 21.794 74.7035 21.8122C74.7035 22.3903 74.7035 22.9293 74.7035 23.5459C75.0126 23.4024 75.1647 23.1958 75.33 23.0192C75.89 22.4207 76.55 21.9638 77.3026 21.6574C78.6138 21.1235 79.9553 20.9893 81.2793 21.5866C82.4969 22.1359 83.1474 23.1273 83.3627 24.4393C83.4751 25.1247 83.3697 25.7623 83.1184 26.3922C83.0807 26.4861 83.0573 26.5851 83.018 26.7127ZM75.1134 26.7699C75.1581 26.7965 75.1853 26.8271 75.2126 26.8271C76.7537 26.8321 78.2955 26.8553 79.8362 26.8286C80.5987 26.8154 81.1363 26.313 81.3116 25.5612C81.4674 24.8935 81.3441 24.2666 80.9691 23.7011C80.595 23.1367 80.0177 22.9087 79.3745 22.9464C78.6472 22.989 77.9789 23.2619 77.3841 23.6933C76.3569 24.4381 75.6866 25.4605 75.1457 26.582C75.1182 26.639 75.1227 26.7117 75.1134 26.7699ZM87.3348 24.7268C87.3346 25.2831 87.4295 25.6361 87.6263 26.0082C88.2103 27.112 89.9692 27.1019 90.5782 26.1619C91.1176 25.3294 91.1818 24.47 90.7362 23.5928C90.1816 22.5012 88.7387 22.3042 87.879 23.18C87.4546 23.6126 87.3105 24.139 87.3348 24.7268Z" fill="white"/>
<path d="M53.4637 22.029C53.9836 22.4567 54.4427 22.8346 54.913 23.2213C54.8064 23.4559 54.6901 23.6632 54.6152 23.8844C54.3001 24.8155 54.4007 25.6852 55.1211 26.3924C55.3382 26.6056 55.6765 26.796 55.9698 26.8127C56.9042 26.8658 57.8435 26.8324 58.8306 26.8324C58.7575 26.6542 58.7028 26.5332 58.6575 26.4084C58.0888 24.8445 58.2053 23.3816 59.3286 22.0848C59.8133 21.5252 60.4392 21.1815 61.1618 21.023C62.5207 20.7248 63.7789 20.9082 64.8637 21.8413C65.4387 22.3359 65.8114 22.9681 65.9763 23.7037C66.2622 24.9807 66.1101 26.1856 65.2673 27.2377C64.5867 28.0872 63.6832 28.5629 62.6027 28.5787C60.3744 28.6112 58.145 28.6127 55.9167 28.581C54.1144 28.5552 52.561 27.0084 52.455 25.2078C52.3996 24.266 52.497 23.3575 53.0535 22.5549C53.1685 22.3886 53.3021 22.2348 53.4637 22.029ZM60.3754 24.7535C60.3396 25.1796 60.4684 25.6192 60.7053 26.0254C61.254 26.9662 62.6234 27.1539 63.4121 26.4033C64.1728 25.6795 64.3103 24.3088 63.7101 23.4308C63.2736 22.7922 62.5395 22.5102 61.787 22.6921C60.9128 22.9037 60.3814 23.6603 60.3754 24.7535Z" fill="white"/>
<path d="M56.6188 46.2793C56.5799 46.412 56.548 46.5203 56.5138 46.6368C55.8556 46.6368 55.2119 46.6368 54.5391 46.6368C54.5391 42.7416 54.5391 38.8753 54.5391 34.9717C55.2016 34.9717 55.8567 34.9717 56.5667 34.9717C56.5667 36.3895 56.5667 37.7847 56.5667 39.2466C56.7087 39.1737 56.7846 39.1443 56.8503 39.0996C58.0903 38.2552 59.8815 38.4927 60.9955 39.3377C62.1441 40.2091 62.7599 41.3652 62.74 42.8239C62.7105 44.9802 61.1287 46.5273 59.4731 46.8364C58.5956 47.0004 57.732 46.9654 56.9479 46.4542C56.8497 46.3904 56.7402 46.3433 56.6188 46.2793ZM60.6992 42.5228C60.6351 42.3123 60.5662 41.8826 60.3804 41.5113C59.7236 40.2003 57.9444 40.0941 57.1452 41.0519C56.4552 41.8789 56.3629 42.8015 56.7196 43.7836C57.2759 45.3159 59.1494 45.3513 59.9794 44.5464C60.4874 44.0539 60.6695 43.4263 60.6992 42.5228Z" fill="white"/>
<path d="M41.3113 26.8388C41.9742 26.8388 42.625 26.8379 43.276 26.839C43.6713 26.8396 43.9362 26.6443 44.0358 26.2732C44.1058 26.0129 44.1426 25.7356 44.1437 25.4658C44.1519 23.2023 44.1484 20.9388 44.1484 18.6755C44.1484 18.4907 44.1484 18.3059 44.1484 18.0908C44.8095 18.0908 45.418 18.0908 46.063 18.0908C46.0762 18.2203 46.1009 18.3506 46.1011 18.481C46.1034 20.916 46.104 23.3509 46.1019 25.7858C46.1015 26.2853 46.048 26.7795 45.8367 27.2393C45.4403 28.102 44.7424 28.539 43.8115 28.5822C43.1443 28.6133 42.4737 28.6028 41.8059 28.5803C41.5762 28.5727 41.3496 28.4733 41.0876 28.4074C40.938 29.4513 40.5624 30.3964 39.6996 31.0918C38.9735 31.6774 38.1336 31.8932 37.1875 31.9235C37.1875 31.3713 37.1875 30.8304 37.1875 30.2505C37.3069 30.2149 37.447 30.1636 37.5915 30.1313C38.255 29.9823 38.6883 29.5676 38.8799 28.9343C38.992 28.5639 39.0595 28.1656 39.0633 27.7791C39.0818 25.9274 39.0715 24.0754 39.0715 22.2235C39.0715 22.037 39.0715 21.8506 39.0715 21.6277C39.7344 21.6277 40.3588 21.6277 41.0349 21.6277C41.0436 21.8114 41.0592 21.9936 41.0594 22.1757C41.0615 23.4618 41.0619 24.7479 41.0596 26.0338C41.059 26.3115 41.0584 26.5852 41.3113 26.8388Z" fill="white"/>
<path d="M69.8903 39.2499C69.9264 39.1097 69.9543 39.0009 69.9885 38.8687C70.6315 38.8687 71.2758 38.8687 71.9147 38.8687C72.0231 39.2662 72.0664 45.4528 71.9682 46.6405C71.6442 46.6488 71.3112 46.6603 70.978 46.6646C70.6539 46.6687 70.3295 46.6654 69.998 46.6654C69.9634 46.5277 69.9356 46.4168 69.9052 46.2958C69.8479 46.3048 69.7889 46.297 69.7533 46.3223C67.377 48.0044 63.7685 46.0451 63.7617 42.8281C63.7582 41.1682 64.4284 39.9052 65.8649 39.1046C67.1265 38.4013 68.4285 38.3258 69.6979 39.1443C69.7508 39.1793 69.8092 39.2061 69.8903 39.2499ZM65.7758 42.7441C65.7935 42.7476 65.8112 42.7511 65.8287 42.7548C65.8287 42.8746 65.8213 42.995 65.8299 43.1142C65.897 44.0339 66.5179 44.7909 67.379 45.007C68.2725 45.2311 69.1677 44.8848 69.6333 44.0852C70.042 43.3834 70.0723 42.6239 69.8366 41.8536C69.5833 41.025 68.821 40.4444 67.9697 40.423C67.043 40.3998 66.2856 40.8918 65.9876 41.7517C65.8777 42.0689 65.8441 42.4126 65.7758 42.7441Z" fill="white"/>
<path d="M8.39236 39.272C8.4257 39.1208 8.44999 39.0107 8.48004 38.8738C9.11764 38.8738 9.76059 38.8738 10.4334 38.8738C10.4334 41.4645 10.4334 44.0273 10.4334 46.6283C9.79475 46.6283 9.16868 46.6283 8.50371 46.6283C8.47078 46.5311 8.42982 46.4099 8.37055 46.235C7.2921 47.0426 6.10973 47.1074 4.90492 46.6717C3.68837 46.2317 2.85752 45.3424 2.46669 44.1261C1.93117 42.4596 2.25409 40.9346 3.52373 39.6898C4.17367 39.0526 4.98518 38.7124 5.90762 38.6021C6.82656 38.492 7.62366 38.7515 8.39236 39.272ZM8.50432 42.7681C8.4148 42.3898 8.36746 41.9951 8.22689 41.6368C7.93814 40.9002 7.34273 40.5108 6.5763 40.4336C5.83312 40.3587 5.18687 40.6053 4.74644 41.2392C4.20722 42.0151 4.15927 42.8609 4.46942 43.734C4.74089 44.4975 5.29575 44.9458 6.09264 45.0433C6.96692 45.1504 7.67861 44.8521 8.13242 44.0631C8.35861 43.6696 8.46481 43.2405 8.50432 42.7681Z" fill="white"/>
<path d="M27.7519 39.1794C27.7727 39.0993 27.7976 39.0038 27.831 38.8766C28.4659 38.8766 29.1099 38.8766 29.7557 38.8766C29.867 39.2158 29.9078 45.8478 29.7971 46.6313C29.1599 46.6313 28.5167 46.6313 27.8433 46.6313C27.8128 46.5297 27.7797 46.4202 27.7431 46.2981C27.6982 46.3066 27.642 46.3012 27.6077 46.3261C25.5813 47.7925 22.2523 46.5198 21.6993 43.5716C21.4185 42.0751 21.7874 40.738 22.9179 39.6888C23.9152 38.7632 25.1151 38.3794 26.4673 38.671C26.8923 38.7626 27.2876 38.9913 27.7519 39.1794ZM25.7663 45.0532C26.6875 45.053 27.366 44.5648 27.6766 43.7025C27.9063 43.0644 27.9069 42.4357 27.6797 41.7983C27.4002 41.014 26.846 40.5344 26.0326 40.4393C25.2133 40.3436 24.5137 40.6147 24.05 41.35C23.7261 41.864 23.618 42.434 23.6808 43.0216C23.835 44.4672 24.7928 45.0873 25.7663 45.0532Z" fill="white"/>
<path d="M36.1213 34.9561C36.7715 34.9561 37.3837 34.9561 38.0697 34.9561C38.0728 35.6554 38.0771 36.35 38.0788 37.0448C38.0804 37.7295 38.0792 38.4141 38.0792 39.156C38.2187 39.0899 38.3253 39.0548 38.415 38.9947C39.8775 38.0156 42.4911 38.8033 42.9779 40.8618C43.0873 41.3246 43.1707 41.8044 43.1804 42.2781C43.2073 43.6147 43.1902 44.9522 43.1888 46.2894C43.1886 46.3898 43.1742 46.49 43.1635 46.6277C42.5065 46.6277 41.8648 46.6277 41.161 46.6277C41.1517 46.4588 41.134 46.2791 41.1336 46.0994C41.1311 44.8479 41.1387 43.5966 41.1276 42.3452C41.1249 42.04 41.0879 41.7305 41.0253 41.4314C40.9078 40.87 40.5439 40.5432 39.9804 40.4403C39.1029 40.2797 38.3558 40.7704 38.1895 41.6416C38.1226 41.9921 38.0878 42.3535 38.0837 42.7106C38.0705 43.8419 38.0788 44.9734 38.0788 46.1048C38.0788 46.2719 38.0788 46.4388 38.0788 46.6362C37.4008 46.6362 36.7766 46.6362 36.1211 46.6362C36.1213 42.7457 36.1213 38.8794 36.1213 34.9561Z" fill="white"/>
<path d="M83.1484 34.9551C83.799 34.9551 84.4115 34.9551 85.0962 34.9551C85.0993 35.6734 85.1036 36.3857 85.1053 37.0978C85.1069 37.835 85.1057 38.5724 85.1057 39.3096C85.1057 40.0275 85.1057 40.7455 85.1057 41.5593C85.2656 41.4408 85.3734 41.379 85.4587 41.2946C86.1407 40.6188 86.8273 39.947 87.4935 39.2559C87.773 38.9659 88.0656 38.8152 88.4836 38.8362C89.1466 38.8698 89.8126 38.8451 90.5277 38.9367C89.4472 39.9902 88.3667 41.0435 87.2531 42.1294C88.4244 43.618 89.5833 45.0912 90.8221 46.6659C90.3055 46.6659 89.9037 46.6706 89.502 46.6644C89.1095 46.6585 88.666 46.7507 88.34 46.5973C88.0337 46.4533 87.8489 46.0472 87.6162 45.7521C87.0347 45.0138 86.4564 44.2731 85.848 43.4964C85.6196 43.7201 85.3944 43.9064 85.2166 44.1301C85.1326 44.2357 85.1137 44.4129 85.1104 44.5588C85.0983 45.0729 85.1057 45.5874 85.1057 46.1019C85.1057 46.2693 85.1057 46.4366 85.1057 46.6346C84.429 46.6346 83.8048 46.6346 83.1484 46.6346C83.1484 42.7454 83.1484 38.8786 83.1484 34.9551Z" fill="white"/>
<path d="M74.0312 38.8479C74.6353 38.8479 75.2149 38.8357 75.793 38.8586C75.9006 38.8629 76.0029 39.0072 76.0863 39.0706C76.475 38.9318 76.8778 38.7429 77.3014 38.6449C78.6749 38.3276 80.69 39.1934 80.9829 41.2229C81.0171 41.4592 81.064 41.6967 81.0658 41.934C81.0774 43.4586 81.0784 44.9835 81.0808 46.5083C81.0808 46.5392 81.0576 46.5703 81.0321 46.6337C80.4023 46.6337 79.7596 46.6337 79.0604 46.6337C79.0522 46.4482 79.0374 46.2667 79.037 46.0854C79.0349 44.817 79.0437 43.5486 79.0304 42.2804C79.0269 41.9589 78.9845 41.631 78.9087 41.3186C78.7992 40.8671 78.4955 40.5948 78.0338 40.4801C77.083 40.2441 76.3186 40.6979 76.1208 41.657C76.0558 41.9725 76.0243 42.3001 76.021 42.6226C76.0093 43.7708 76.0165 44.9195 76.0165 46.0679C76.0165 46.2379 76.0165 46.4079 76.0165 46.6221C75.3476 46.6221 74.7088 46.6221 74.0312 46.6221C74.0312 44.0598 74.0312 41.4985 74.0312 38.8479Z" fill="white"/>
<path d="M30.1406 50.7632C30.1406 50.1697 30.1406 49.6272 30.1406 49.1598C30.5483 48.9608 30.949 48.8364 31.2619 48.5973C31.8501 48.1474 32.0075 47.4816 32.0067 46.7666C32.0038 44.3352 32.0057 41.9035 32.0057 39.4721C32.0057 39.2869 32.0057 39.1016 32.0057 38.8818C32.69 38.8818 33.3288 38.8818 33.9998 38.8818C34.0101 39.0471 34.0273 39.1965 34.0275 39.3459C34.0292 41.9315 34.0428 44.5173 34.024 47.1027C34.0107 48.9488 32.5558 50.5731 30.5502 50.7791C30.4337 50.791 30.3143 50.7709 30.1406 50.7632Z" fill="white"/>
<path d="M12.4883 34.9346C12.9818 34.9346 13.4414 34.9346 13.9008 34.9346C14.0854 34.9346 14.27 34.9346 14.4828 34.9346C14.4828 38.8491 14.4828 42.7138 14.4828 46.6219C13.8291 46.6219 13.1753 46.6219 12.4883 46.6219C12.4883 42.7475 12.4883 38.8845 12.4883 34.9346Z" fill="white"/>
<path d="M47.8906 18.0781C48.5591 18.0781 49.1909 18.0781 49.8219 18.0781C49.9329 18.4321 49.9652 27.8545 49.8497 28.589C49.5402 28.589 49.2193 28.589 48.8985 28.589C48.5747 28.589 48.2508 28.589 47.8906 28.589C47.8906 25.0792 47.8906 21.6084 47.8906 18.0781Z" fill="white"/>
<path d="M36.3978 28.5661C35.7557 28.5661 35.1436 28.5661 34.5315 28.5661C34.423 28.2163 34.3866 18.8647 34.4951 18.0908C35.1144 18.0908 35.7386 18.0908 36.398 18.0908C36.3978 21.5686 36.3978 25.0377 36.3978 28.5661Z" fill="white"/>
<path d="M18.4225 46.6731C17.7244 46.6731 17.0825 46.6731 16.3994 46.6731C16.3868 46.5048 16.3667 46.3564 16.3665 46.2078C16.364 44.8379 16.348 43.4677 16.3743 42.0984C16.3833 41.6261 16.4492 41.141 16.5797 40.688C16.8625 39.7057 17.5338 39.0854 18.5316 38.8476C19.3172 38.6606 20.1108 38.5826 20.9346 38.7822C20.9346 39.3305 20.9346 39.8722 20.9346 40.4744C20.6889 40.4805 20.4559 40.4847 20.2231 40.4927C20.0011 40.5005 19.7776 40.4993 19.5573 40.5252C18.7819 40.6168 18.4287 41.0196 18.4244 41.8331C18.4176 43.1515 18.4225 44.4702 18.4225 45.7886C18.4225 46.0749 18.4225 46.3613 18.4225 46.6731Z" fill="white"/>
<path d="M45.2337 38.875C45.8909 38.875 46.5186 38.875 47.1737 38.875C47.1737 41.4682 47.1737 44.0312 47.1737 46.6299C46.5268 46.6299 45.9001 46.6299 45.2699 46.6299C45.1569 46.2924 45.1187 39.667 45.2337 38.875Z" fill="white"/>
<path d="M46.1926 37.439C45.4352 37.4384 44.9308 36.9395 44.9376 36.1976C44.9439 35.5081 45.4854 34.9856 46.1802 34.9662C46.8193 34.9485 47.4604 35.5007 47.4616 36.2101C47.4626 36.8445 46.8763 37.5438 46.1926 37.439Z" fill="white"/>
<path d="M33.0329 37.439C32.3101 37.5464 31.7243 36.7913 31.7593 36.2119C31.8011 35.518 32.3051 34.9796 32.9954 34.9699C33.7388 34.9594 34.2671 35.4681 34.2706 36.1977C34.2743 36.9718 33.8108 37.4367 33.0329 37.439Z" fill="white"/>
<path d="M3.84253 32.602C3.1578 32.6009 2.67662 32.1224 2.6797 31.4455C2.68279 30.7715 3.16994 30.2998 3.85796 30.3047C4.48815 30.3093 5.00082 30.8116 5.0107 31.4346C5.02079 32.0728 4.49021 32.603 3.84253 32.602Z" fill="white"/>
<path d="M8.30367 31.4337C8.31211 32.0981 7.81796 32.5978 7.14888 32.6019C6.49502 32.606 5.96917 32.0899 5.97267 31.4473C5.97597 30.826 6.48432 30.3152 7.10977 30.3049C7.78586 30.2938 8.29544 30.7756 8.30367 31.4337Z" fill="white"/>
<path d="M58.9659 19.4968C58.9513 20.1708 58.4782 20.5843 57.7467 20.5616C57.1071 20.5421 56.6446 20.0374 56.6689 19.3858C56.6926 18.7546 57.206 18.2685 57.8344 18.2627C58.4745 18.257 59.0404 18.7997 58.9659 19.4968Z" fill="white"/>
<path d="M28.5078 31.4469C28.5984 32.0616 27.9567 32.6527 27.3685 32.6113C26.714 32.5654 26.2048 32.0853 26.211 31.4327C26.217 30.8035 26.7169 30.3431 27.3555 30.2964C28.0013 30.2493 28.6002 30.891 28.5078 31.4469Z" fill="white"/>
</svg>
