<svg width="136" height="77" viewBox="0 0 136 77" fill="none" xmlns="http://www.w3.org/2000/svg">
<path d="M43.9281 68.8063H38.3984V46.8926H43.9281V68.8063Z" fill="#F3F5F6"/>
<mask id="mask0_6802_38581" style="mask-type:luminance" maskUnits="userSpaceOnUse" x="0" y="0" width="136" height="77">
<path d="M0 77H135.155V0H0V77Z" fill="white"/>
</mask>
<g mask="url(#mask0_6802_38581)">
<path d="M88.5164 53.1723C88.2887 53.0567 86.5091 52.0024 83.8643 52.0024C80.2894 52.0024 77.8092 54.4895 77.8092 57.8472C77.8092 61.1034 80.1825 63.6975 83.8643 63.6975C86.4636 63.6975 88.2729 62.6641 88.5164 62.5344V68.4161C87.8228 68.6088 85.9329 69.1956 83.4772 69.1956C77.2574 69.1956 71.7978 64.9078 71.7978 57.8455C71.7978 51.3035 76.7372 46.5042 83.4772 46.5042C86.0695 46.5042 87.9927 47.1348 88.5164 47.2907V53.1723ZM30.7975 53.1723C30.5751 53.0567 28.7972 52.0024 26.1524 52.0024C22.5705 52.0024 20.092 54.4895 20.092 57.8472C20.092 61.1034 22.4671 63.6975 26.1524 63.6975C28.7517 63.6975 30.5593 62.6641 30.7975 62.5344V68.4161C30.1109 68.6088 28.2227 69.1956 25.753 69.1956C19.5385 69.1956 14.0859 64.9078 14.0859 57.8455C14.0859 51.3035 19.0253 46.5042 25.7548 46.5042C28.3576 46.5042 30.2773 47.1348 30.7975 47.2907V53.1723ZM105.911 52.0847C102.63 52.0847 100.194 54.6664 100.194 57.8472C100.194 61.0351 102.63 63.6152 105.911 63.6152C109.188 63.6152 111.632 61.0351 111.632 57.8472C111.632 54.6664 109.188 52.0847 105.911 52.0847ZM117.491 57.8472C117.491 64.116 112.651 69.1956 105.913 69.1956C99.1711 69.1956 94.3386 64.1161 94.3386 57.8455C94.3386 51.589 99.1728 46.5042 105.911 46.5042C112.651 46.5042 117.491 51.5889 117.491 57.8472ZM64.8985 51.8745C64.8161 51.8482 62.4883 51.2054 60.5756 51.2054C58.3599 51.2054 57.1549 51.9481 57.1549 53.0008C57.1549 54.3354 58.7803 54.8013 59.6894 55.0885L61.215 55.5738C64.8056 56.7158 66.4398 59.1732 66.4398 61.8425C66.4398 67.3477 61.5985 69.1973 57.3668 69.1973C54.4259 69.1973 51.6707 68.6543 51.3993 68.5983V63.5538C51.8862 63.6764 54.2052 64.37 56.6206 64.37C59.3723 64.37 60.6369 63.5644 60.6369 62.3243C60.6369 61.2138 59.5422 60.5727 58.1708 60.1418C57.838 60.0297 57.3335 59.872 56.9902 59.7599C53.911 58.786 51.3432 56.975 51.3432 53.3493C51.3432 49.2506 54.4119 46.4989 59.5089 46.4989C62.2011 46.4989 64.7338 47.1523 64.8985 47.1961V51.8727V51.8745Z" fill="#F3F5F6"/>
<path d="M8.22159 23.3438C8.22159 21.834 6.98849 20.6096 5.4769 20.6096C3.96531 20.6096 2.73047 21.8339 2.73047 23.342V29.0959C2.74856 29.8121 3.04577 30.4928 3.55869 30.993C4.07161 31.4931 4.75965 31.7729 5.47604 31.7729C6.19243 31.7729 6.88045 31.4931 7.39337 30.993C7.90629 30.4928 8.2035 29.8121 8.22159 29.0959V23.3438ZM23.3007 15.7946C23.3007 15.0665 23.0114 14.3681 22.4965 13.8532C21.9817 13.3383 21.2833 13.0491 20.5552 13.0491C19.827 13.0491 19.1286 13.3383 18.6138 13.8532C18.0989 14.3681 17.8096 15.0665 17.8096 15.7946V29.0959C17.8096 29.8241 18.0989 30.5224 18.6138 31.0373C19.1286 31.5522 19.827 31.8415 20.5552 31.8415C21.2833 31.8415 21.9817 31.5522 22.4965 31.0373C23.0114 30.5224 23.3007 29.8241 23.3007 29.0959V15.7928V15.7946ZM38.3816 5.46395C38.3816 3.95412 37.1485 2.72801 35.6369 2.72801C34.1236 2.72801 32.8905 3.95412 32.8905 5.46395V34.5625C32.9085 35.2786 33.2058 35.9594 33.7187 36.4595C34.2316 36.9596 34.9196 37.2396 35.636 37.2396C36.3524 37.2396 37.0404 36.9596 37.5534 36.4595C38.0663 35.9594 38.3635 35.2786 38.3816 34.5625V5.46395ZM53.4607 15.7946C53.4607 15.0665 53.1714 14.3681 52.6565 13.8532C52.1416 13.3383 51.4433 13.0491 50.7151 13.0491C49.987 13.0491 49.2886 13.3383 48.7737 13.8532C48.2588 14.3681 47.9696 15.0665 47.9696 15.7946V29.0959C47.9696 29.8241 48.2588 30.5224 48.7737 31.0373C49.2886 31.5522 49.987 31.8415 50.7151 31.8415C51.4433 31.8415 52.1416 31.5522 52.6565 31.0373C53.1714 30.5224 53.4607 29.8241 53.4607 29.0959V15.7928V15.7946ZM68.524 23.3438C68.5245 22.6194 68.2373 21.9245 67.7256 21.4118C67.2139 20.8991 66.5195 20.6105 65.7951 20.6096C65.0692 20.6091 64.3726 20.8965 63.8582 21.4087C63.3437 21.9209 63.0532 22.616 63.0504 23.342V29.0959C63.0504 29.8218 63.3388 30.5179 63.852 31.0311C64.3653 31.5444 65.0614 31.8327 65.7872 31.8327C66.5131 31.8327 67.2092 31.5444 67.7225 31.0311C68.2357 30.5179 68.524 29.8218 68.524 29.0959V23.3438ZM83.6102 15.7946C83.5921 15.0808 83.2959 14.4022 82.7846 13.9037C82.2733 13.4052 81.5875 13.1261 80.8734 13.1261C80.1593 13.1261 79.4734 13.4052 78.9622 13.9037C78.4509 14.4022 78.1546 15.0808 78.1366 15.7946V29.0959C78.1366 29.8218 78.4249 30.5179 78.9382 31.0311C79.4514 31.5444 80.1475 31.8327 80.8734 31.8327C81.5992 31.8327 82.2953 31.5444 82.8086 31.0311C83.3218 30.5179 83.6102 29.8218 83.6102 29.0959V15.7928V15.7946ZM98.6998 5.46395C98.6998 4.73811 98.4115 4.04198 97.8982 3.52874C97.385 3.01549 96.6888 2.72715 95.963 2.72715C95.2371 2.72715 94.541 3.01549 94.0278 3.52874C93.5145 4.04198 93.2262 4.73811 93.2262 5.46395V34.5625C93.21 34.9319 93.2688 35.3009 93.399 35.647C93.5293 35.9932 93.7282 36.3094 93.984 36.5766C94.2397 36.8438 94.5469 37.0564 94.887 37.2016C95.2271 37.3469 95.5931 37.4219 95.963 37.4219C96.3328 37.4219 96.6989 37.3469 97.039 37.2016C97.3791 37.0564 97.6863 36.8438 97.942 36.5766C98.1977 36.3094 98.3967 35.9932 98.527 35.647C98.6572 35.3009 98.716 34.9319 98.6998 34.5625V5.46395ZM113.786 15.7946C113.786 14.283 112.562 13.0552 111.015 13.0552C110.289 13.0556 109.593 13.3442 109.08 13.8576C108.567 14.371 108.279 15.067 108.279 15.7928V29.0959C108.279 30.6145 109.505 31.8388 111.015 31.8388C112.562 31.8388 113.786 30.6145 113.786 29.0959V15.7928V15.7946ZM128.844 23.3438C128.844 22.6173 128.555 21.9204 128.042 21.4067C127.528 20.8929 126.831 20.6043 126.105 20.6043C125.378 20.6043 124.681 20.8929 124.168 21.4067C123.654 21.9204 123.365 22.6173 123.365 23.3438V29.0959C123.365 30.6145 124.593 31.8405 126.105 31.8405C127.614 31.8405 128.842 30.6145 128.842 29.0959V23.3438H128.844Z" fill="#F3F5F6"/>
<path d="M125.677 65.9199V66.2632H124.7V68.8047H124.297V66.265H123.316V65.9199H125.677ZM125.882 65.9199H126.511L127.375 68.2863H127.389L128.224 65.9216H128.841V68.8047H128.429V66.4401H128.415L127.539 68.8047H127.159L126.305 66.4401H126.285V68.8047H125.882V65.9199Z" fill="#F3F5F6"/>
</g>
</svg>
