<svg width="20" height="20" viewBox="0 0 20 20" fill="none" xmlns="http://www.w3.org/2000/svg">
<path d="M7.41179 18.7993H3.21491C3.1171 18.7993 3.0246 18.7534 2.96554 18.6752C2.90648 18.5968 2.88741 18.4955 2.91429 18.4012L3.26741 17.1637C3.42023 16.6327 3.80241 16.2118 4.31554 16.009C4.56929 15.9096 4.81023 15.8393 5.04929 15.793C5.54866 15.6974 6.05429 15.6977 6.55241 15.793C6.79179 15.8393 7.03273 15.9099 7.2696 16.0024C7.6596 16.1546 7.9746 16.429 8.17241 16.7815C8.2571 16.9318 8.20335 17.1224 8.05273 17.2068C7.90304 17.2912 7.7121 17.2384 7.62741 17.0871C7.50023 16.8605 7.29804 16.6843 7.05835 16.5909C6.84085 16.5059 6.63585 16.4459 6.43429 16.4065C6.02054 16.3271 5.58241 16.3268 5.16804 16.4065C4.96648 16.4455 4.7621 16.5052 4.56085 16.584C4.2146 16.7209 3.96773 16.993 3.86898 17.3355L3.6296 18.1743H7.4121C7.58491 18.1743 7.7246 18.314 7.7246 18.4868C7.7246 18.6596 7.58491 18.7993 7.4121 18.7993H7.41179Z" fill="#F9F8F6"/>
<path d="M5.80062 15.5542C5.04469 15.5542 4.42969 14.9389 4.42969 14.1829C4.42969 13.427 5.04469 12.812 5.80062 12.812C6.55656 12.812 7.17156 13.427 7.17156 14.1829C7.17156 14.9389 6.55656 15.5542 5.80062 15.5542ZM5.80062 13.4373C5.38937 13.4373 5.05469 13.7717 5.05469 14.1833C5.05469 14.5948 5.38906 14.9295 5.80062 14.9295C6.21219 14.9295 6.54656 14.5948 6.54656 14.1833C6.54656 13.7717 6.21219 13.4373 5.80062 13.4373Z" fill="#F9F8F6"/>
<path d="M12.8876 18.3997L12.5338 17.1632C12.3841 16.6404 11.9926 16.2085 11.4688 16.001C11.2373 15.9104 10.996 15.8404 10.7516 15.7926C10.2532 15.6976 9.74758 15.6972 9.24852 15.7926C9.00508 15.8401 8.76383 15.9101 8.51539 16.0076C8.00852 16.2082 7.61664 16.6397 7.46727 17.1622L7.11352 18.3991C7.08664 18.4935 7.1057 18.5951 7.16445 18.6735C7.22352 18.7516 7.31602 18.7976 7.41414 18.7976H12.587C12.6848 18.7976 12.7773 18.7516 12.8366 18.6735C12.8954 18.5951 12.9145 18.4935 12.8876 18.3991V18.3997Z" fill="#F9F8F6"/>
<path d="M9.99984 12.8123C9.24391 12.8123 8.62891 13.4273 8.62891 14.1832C8.62891 14.9391 9.24391 15.5544 9.99984 15.5544C10.7558 15.5544 11.3708 14.9391 11.3708 14.1832C11.3708 13.4273 10.7558 12.8123 9.99984 12.8123Z" fill="#F9F8F6"/>
<path d="M16.7823 18.7992H12.5854C12.4126 18.7992 12.2729 18.6596 12.2729 18.4867C12.2729 18.3139 12.4126 18.1742 12.5854 18.1742H16.3679L16.1282 17.3349C16.0301 16.9927 15.7832 16.7208 15.4513 16.5896C15.2354 16.5049 15.0307 16.4452 14.8288 16.4058C14.4151 16.3264 13.977 16.3261 13.5626 16.4058C13.3613 16.4449 13.1566 16.5046 12.9548 16.5833C12.6995 16.683 12.4973 16.8596 12.3701 17.0858C12.2854 17.2364 12.0941 17.2896 11.9448 17.2055C11.7945 17.1208 11.7407 16.9305 11.8251 16.7802C12.0229 16.4277 12.3379 16.1533 12.7123 16.0074C12.9648 15.9086 13.2057 15.838 13.4445 15.7921C13.9438 15.6964 14.4495 15.6967 14.9476 15.7921C15.1873 15.8386 15.4282 15.9089 15.6648 16.0014C16.1948 16.2114 16.577 16.6324 16.7295 17.1627L17.0829 18.4008C17.1098 18.4952 17.0907 18.5964 17.0316 18.6749C16.9729 18.753 16.8804 18.7992 16.7823 18.7992Z" fill="#F9F8F6"/>
<path d="M14.1952 15.5542C13.4392 15.5542 12.8242 14.9389 12.8242 14.1829C12.8242 13.427 13.4392 12.812 14.1952 12.812C14.9511 12.812 15.5664 13.427 15.5664 14.1829C15.5664 14.9389 14.9511 15.5542 14.1952 15.5542ZM14.1952 13.4373C13.7839 13.4373 13.4492 13.7717 13.4492 14.1833C13.4492 14.5948 13.7836 14.9295 14.1952 14.9295C14.6067 14.9295 14.9414 14.5948 14.9414 14.1833C14.9414 13.7717 14.6067 13.4373 14.1952 13.4373Z" fill="#F9F8F6"/>
<path d="M4.67188 11.9465C4.61906 11.9465 4.56656 11.933 4.51906 11.9065L3.03063 11.0711H1.5625C1.38969 11.0711 1.25 10.9315 1.25 10.7586V7.57739C1.25 7.40458 1.38969 7.26489 1.5625 7.26489H5.80094C5.97375 7.26489 6.11344 7.40458 6.11344 7.57739C6.11344 7.75021 5.97375 7.88989 5.80094 7.88989H1.875V10.4461H3.1125C3.16625 10.4461 3.21875 10.4599 3.26531 10.4861L4.35938 11.1002V10.7586C4.35938 10.5858 4.49906 10.4461 4.67188 10.4461H5.01625C5.18906 10.4461 5.32875 10.5858 5.32875 10.7586C5.32875 10.9315 5.18906 11.0711 5.01625 11.0711H4.98438V11.634C4.98438 11.7449 4.92563 11.8477 4.82969 11.9036C4.78125 11.9321 4.72656 11.9465 4.67188 11.9465Z" fill="#F9F8F6"/>
<path d="M5.01734 8.99512H2.76953C2.59672 8.99512 2.45703 8.85543 2.45703 8.68262C2.45703 8.5098 2.59672 8.37012 2.76953 8.37012H5.01734C5.19016 8.37012 5.32984 8.5098 5.32984 8.68262C5.32984 8.85543 5.19016 8.99512 5.01734 8.99512Z" fill="#F9F8F6"/>
<path d="M5.01734 9.9668H2.76953C2.59672 9.9668 2.45703 9.82711 2.45703 9.6543C2.45703 9.48148 2.59672 9.3418 2.76953 9.3418H5.01734C5.19016 9.3418 5.32984 9.48148 5.32984 9.6543C5.32984 9.82711 5.19016 9.9668 5.01734 9.9668Z" fill="#F9F8F6"/>
<path d="M15.3289 11.9465C15.2742 11.9465 15.2195 11.9321 15.1711 11.9036C15.0752 11.8474 15.0164 11.7449 15.0164 11.634V11.0571C14.8892 11.0174 14.797 10.8986 14.797 10.7586C14.797 10.5858 14.9367 10.4461 15.1095 10.4461H15.3289C15.5017 10.4461 15.6414 10.5858 15.6414 10.7586V11.1002L16.7355 10.4861C16.782 10.4599 16.8345 10.4461 16.8883 10.4461H18.1258V7.88989H14.1992C14.0264 7.88989 13.8867 7.75021 13.8867 7.57739C13.8867 7.40458 14.0264 7.26489 14.1992 7.26489H18.4383C18.6111 7.26489 18.7508 7.40458 18.7508 7.57739V10.7586C18.7508 10.9315 18.6111 11.0711 18.4383 11.0711H16.9702L15.4817 11.9065C15.4342 11.933 15.3817 11.9465 15.3289 11.9465Z" fill="#F9F8F6"/>
<path d="M17.2322 8.99512H14.9844C14.8116 8.99512 14.6719 8.85543 14.6719 8.68262C14.6719 8.5098 14.8116 8.37012 14.9844 8.37012H17.2322C17.405 8.37012 17.5447 8.5098 17.5447 8.68262C17.5447 8.85543 17.405 8.99512 17.2322 8.99512Z" fill="#F9F8F6"/>
<path d="M17.2322 9.9668H14.9844C14.8116 9.9668 14.6719 9.82711 14.6719 9.6543C14.6719 9.48148 14.8116 9.3418 14.9844 9.3418H17.2322C17.405 9.3418 17.5447 9.48148 17.5447 9.6543C17.5447 9.82711 17.405 9.9668 17.2322 9.9668Z" fill="#F9F8F6"/>
<path d="M14.2981 10.8037L13.7512 8.89184C13.535 8.13434 12.9668 7.5084 12.2065 7.20715C11.8568 7.07027 11.4943 6.96527 11.1278 6.89371C10.379 6.75027 9.61903 6.75027 8.86935 6.89371C8.50341 6.96496 8.14091 7.06996 7.7656 7.21715C7.0306 7.50809 6.46278 8.13402 6.24685 8.8909L5.69966 10.8031C5.67247 10.8975 5.69153 10.999 5.75028 11.0771C5.80935 11.1556 5.90185 11.2015 5.99997 11.2015H13.9981C14.0959 11.2015 14.1884 11.1556 14.2478 11.0771C14.3065 10.999 14.3256 10.8975 14.2984 10.8031L14.2981 10.8037Z" fill="#F9F8F6"/>
<path d="M8.80138 9.11476C8.79483 9.0059 8.84557 8.89703 8.94318 8.83355L9.8552 8.24145C9.96878 8.16762 10.117 8.1756 10.222 8.2607L11.0606 8.93999C11.1949 9.04869 11.2152 9.24595 11.1068 9.37958C10.9981 9.51353 10.8011 9.53446 10.6672 9.42575L10.005 8.88925L9.28308 9.35752C9.13846 9.45137 8.94471 9.41044 8.85084 9.2655C8.82046 9.21849 8.80419 9.16656 8.80105 9.11447L8.80138 9.11476Z" fill="#365327"/>
<path d="M9.99953 6.35031C8.59328 6.35031 7.44922 5.20656 7.44922 3.80031C7.44922 2.39406 8.59328 1.25 9.99953 1.25C11.4058 1.25 12.5495 2.39406 12.5495 3.80031C12.5495 5.20656 11.4058 6.35031 9.99953 6.35031ZM9.99953 1.875C8.93797 1.875 8.07422 2.73875 8.07422 3.80031C8.07422 4.86188 8.93797 5.72531 9.99953 5.72531C11.0611 5.72531 11.9245 4.86156 11.9245 3.80031C11.9245 2.73906 11.0608 1.875 9.99953 1.875Z" fill="#F9F8F6"/>
</svg>
