<svg width="167" height="54" viewBox="0 0 167 54" fill="none" xmlns="http://www.w3.org/2000/svg">
<path d="M70.0335 20.2135C70.2855 19.8353 70.9372 18.5535 70.9372 18.1334C70.2439 17.461 69.2564 17.3352 68.941 16.9358C68.8359 16.7889 70.2016 15.9272 70.2228 15.759L70.454 14.6873C70.3909 14.5611 67.6803 16.5785 67.7015 18.1123V18.2384C67.6803 18.9317 69.7396 19.5833 69.7396 19.5833C69.3403 20.0877 65.5371 21.7054 64.6758 21.9366C66.6928 22.0624 68.8987 21.9785 70.0335 20.2135Z" fill="white"/>
<path d="M16.9988 20.4028C15.7382 18.7009 13.1326 16.7677 9.6449 12.9438C9.6449 12.9438 7.92183 11.2208 6.91352 10.1074L6.55614 12.6287C8.51004 15.2763 12.1662 18.9744 16.5368 22.6513C16.7049 22.7983 16.3898 22.9876 16.2637 23.0295C13.5323 24.3744 6.57729 27.3789 3.92979 27.4209C-0.146499 27.484 1.40846 22.0839 1.74468 21.1595C1.74468 21.1595 1.87086 20.7813 1.68159 20.6971C0.904116 22.4832 -2.39469 30.2573 3.63549 30.1734C7.08126 30.1315 14.3725 26.6434 16.8519 25.3827C17.6924 24.9626 17.6924 23.702 17.7132 23.1345C17.6713 22.0208 17.5451 21.2853 16.9988 20.4028Z" fill="white"/>
<path d="M99.2365 20.0875L99.0896 19.9193C98.8376 20.7599 98.6064 21.5582 98.354 22.3776C99.1946 23.5544 100.119 24.8358 100.224 26.3277C100.119 27.2733 97.7235 27.6095 95.8115 27.6303H95.7904C91.0628 27.6303 91.546 24.7939 91.5879 23.5752C91.5668 23.6171 89.3609 27.4833 86.0198 27.4833C82.1747 27.2941 80.956 24.8989 80.8929 23.197C80.8509 17.6919 76.1234 15.5699 72.0259 9.47628L71.8997 9.28701C71.8997 9.28701 70.5548 7.165 70.429 6.99688C71.1015 6.34558 87.5324 2.77364 90.4111 2.20621C91.0205 2.12234 91.5456 2.24815 91.1044 3.8031C90.6 5.52617 88.7512 10.1064 87.9106 12.2496C89.6756 9.43397 94.1089 -0.147374 92.0707 0.0207395C88.7088 0.630104 72.1309 4.43325 69.7985 5.37884C69.5673 5.77815 69.1891 8.76189 69.3784 8.90885C72.8453 14.5609 77.8672 18.8895 79.2329 21.2635C79.506 21.7467 79.6111 22.2299 79.5691 22.3561C78.2665 25.4656 67.3826 27.798 63.8945 27.798C63.3063 27.798 62.5707 27.7769 61.7933 27.693C66.3739 20.4441 55.1537 6.26134 52.5901 2.08003C51.7918 0.861305 51.4764 0.31503 51.4764 0.31503L50.4889 2.41626C50.9301 4.79063 52.0227 21.0115 52.0227 22.146C52.0438 23.5117 52.0646 23.5329 52.0646 25.1505C52.0646 27.2306 48.1564 27.1467 47.6521 27.0836C46.2864 26.8317 45.6351 23.9949 45.5508 22.0618C40.9494 28.0081 35.6544 27.6088 35.6333 27.6088C30.5906 27.0413 30.4225 20.3598 30.2544 16.4097C30.2125 15.1071 30.2332 3.78195 29.9813 0.167698C29.9813 0.167698 28.4263 2.37395 28.3424 2.73096C28.3424 3.80273 28.7625 14.4974 28.9306 17.6073C29.1199 20.843 28.3001 23.8479 25.4637 26.3481C25.6107 26.18 26.01 25.0874 26.0312 24.6881C26.5563 18.9942 19.7486 13.3418 15.3361 6.8284L15.1891 6.63914C15.1891 6.63914 13.298 3.44535 12.899 2.92023C12.6678 3.4665 12.3527 4.79026 12.2266 5.58852C17.9417 15.1487 25.2748 20.6118 24.8967 25.3814C24.8128 26.3269 24.6866 26.7051 24.1192 27.2725C21.4509 29.5627 18.593 31.0126 15.3573 32.3575H15.8404C18.2779 32.4418 22.5642 31.4538 24.4762 30.0462C27.2076 28.05 29.1407 24.3942 29.6239 22.146L29.645 22.0198L29.6662 22.1249C29.9182 25.1505 29.8974 28.8067 34.2468 29.92C37.4825 30.7395 40.4243 29.3107 42.4202 27.9031C44.059 26.7474 45.0257 25.5706 45.0257 25.6549C45.0257 27.3779 45.4039 28.7017 46.2445 29.2057C47.6732 30.067 49.6694 29.6681 49.6694 29.6681C54.3339 28.8698 53.6407 23.2805 53.6407 20.6961C53.6407 17.4604 52.5689 6.91264 52.4431 5.33653C54.7756 9.05544 64.2938 21.6836 60.5115 27.5457C59.3347 27.3356 58.2002 26.9575 57.5489 26.285C57.5489 26.2431 56.162 25.2555 56.1832 23.4905C56.2043 21.1162 57.927 18.826 57.927 18.826C56.0782 20.4229 55.0695 23.7006 55.0695 24.8562C55.0695 27.5876 56.7714 29.1006 58.9777 29.7731C57.9059 31.0126 57.717 31.2857 57.0238 32.0001C58.2005 31.3908 59.1881 30.7183 59.9863 30.0039C60.6588 30.1301 61.352 30.172 62.0245 30.172C71.0803 30.172 78.8336 26.684 80.0104 23.8264C79.9265 31.0122 86.9654 29.7516 86.9654 29.7516C89.4659 29.3315 90.348 28.0916 91.1467 27.1041V27.146C92.3023 31.5793 99.1731 29.6042 99.2362 29.6042C100.791 29.2469 101.316 25.9061 101.316 24.6666C101.275 22.945 100.287 21.4112 99.2365 20.0875Z" fill="white"/>
<path d="M93.1215 18.4066L91.0622 16.8936L89.8647 18.4904C89.8647 18.4904 89.7385 18.6166 89.8647 18.7216L91.9659 20.2135L93.1215 18.7005C93.2266 18.5328 93.1846 18.4697 93.1215 18.4066Z" fill="white"/>
<path d="M97.3481 33.4928L95.2888 31.959L94.0912 33.5559C94.0912 33.5559 93.9651 33.6821 94.0912 33.7871L96.1925 35.2789L97.3481 33.7663C97.4531 33.619 97.4112 33.5559 97.3481 33.4928Z" fill="white"/>
<path d="M47.7364 33.4925L45.6772 31.9795L44.4584 33.5764C44.4584 33.5764 44.3322 33.7026 44.4584 33.8076L46.5597 35.2994L47.7153 33.7864C47.8415 33.6187 47.7995 33.5556 47.7364 33.4925Z" fill="white"/>
<path d="M4.58062 50.9953C4.95879 50.9953 5.33695 50.9741 5.75742 50.9322C6.15673 50.8903 6.5349 50.7852 6.87112 50.6379C7.20735 50.4698 7.48049 50.2386 7.71169 49.9235C7.92174 49.6085 8.04792 49.188 8.04792 48.6417C8.04792 48.1166 7.94289 47.6961 7.73284 47.381C7.52279 47.066 7.24966 46.8136 6.93458 46.6247C6.59836 46.4355 6.26213 46.3097 5.86281 46.2466C5.4635 46.1835 5.08534 46.1415 4.72833 46.1415H2.08082V50.9953H4.58062ZM4.64371 44.3558C4.95879 44.3558 5.27423 44.3138 5.5893 44.2296C5.90438 44.1453 6.19867 44.0195 6.45065 43.8514C6.72379 43.6833 6.93384 43.4521 7.08117 43.179C7.24929 42.9058 7.31237 42.5696 7.31237 42.1703C7.31237 41.729 7.2285 41.3928 7.08117 41.1197C6.91306 40.8465 6.70301 40.6365 6.45065 40.4891C6.1983 40.3418 5.90438 40.2372 5.5893 40.1949C5.27423 40.1529 4.95879 40.1106 4.64371 40.1106H2.0593V44.3338H4.64371V44.3558ZM0.0419359 38.3252H4.93763C5.69396 38.3252 6.34526 38.4302 6.89153 38.6195C7.43781 38.8088 7.90021 39.0819 8.25722 39.4177C8.61423 39.7536 8.88774 40.1321 9.05548 40.5945C9.24475 41.0358 9.32862 41.519 9.32862 42.0233C9.32862 42.4857 9.24475 42.9058 9.07664 43.284C8.90852 43.6621 8.69847 43.9772 8.46727 44.2504C8.23607 44.5023 7.96293 44.7128 7.68979 44.8809C7.3955 45.049 7.14352 45.1328 6.91232 45.1752C7.20661 45.2171 7.54283 45.3013 7.921 45.4483C8.29916 45.5745 8.63538 45.7845 8.95046 46.0577C9.26553 46.3308 9.53867 46.6882 9.74872 47.1294C9.95877 47.5707 10.0638 48.117 10.0638 48.7683C10.0638 49.5457 9.91683 50.197 9.64369 50.7222C9.37056 51.2265 8.97124 51.6466 8.48805 51.9617C8.00487 52.2767 7.43744 52.5079 6.76498 52.6341C6.09253 52.7603 5.37814 52.8234 4.64297 52.8234H0L0.0419359 38.3252Z" fill="white"/>
<path d="M18.068 48.0323C18.0049 48.0112 17.8999 47.9904 17.7318 47.9692C17.5636 47.9481 17.3744 47.9273 17.1643 47.9061C16.9331 47.885 16.7019 47.885 16.4711 47.8642C16.2191 47.843 15.9879 47.843 15.7567 47.843C15.2104 47.843 14.748 47.9061 14.4118 48.0323C14.0756 48.1585 13.8024 48.3266 13.6135 48.5155C13.4243 48.7048 13.2773 48.9356 13.2142 49.1668C13.1303 49.398 13.1092 49.6292 13.1092 49.8393C13.1092 50.3855 13.2985 50.8056 13.6766 51.0788C14.0548 51.3519 14.5803 51.4989 15.2316 51.4989C15.6097 51.4989 15.9671 51.4358 16.3033 51.3096C16.6396 51.1834 16.9339 51.0153 17.207 50.7845C17.459 50.5744 17.6694 50.3013 17.8375 50.0281C18.0056 49.7339 18.0687 49.4399 18.0687 49.1456L18.068 48.0323ZM18.1103 51.5831C17.7321 52.0874 17.2278 52.4656 16.6184 52.7176C16.0091 52.9696 15.3789 53.0958 14.7272 53.0958C14.3071 53.0958 13.8867 53.0327 13.4877 52.9276C13.0676 52.8226 12.6895 52.6333 12.3532 52.3814C12.017 52.1294 11.7439 51.8139 11.5338 51.3938C11.3238 50.9945 11.2188 50.5113 11.2188 49.9231C11.2188 48.8306 11.5969 47.9692 12.3532 47.3176C13.1096 46.6663 14.2021 46.33 15.6309 46.33C15.8621 46.33 16.1141 46.33 16.3664 46.3512C16.6188 46.3723 16.8708 46.3723 17.102 46.3931C17.3332 46.4143 17.5432 46.4143 17.7113 46.4351C17.8795 46.4562 18.0056 46.4562 18.0895 46.477V46.0988C18.0895 45.3425 17.8583 44.817 17.3963 44.4808C16.9339 44.1446 16.3245 43.9976 15.5474 43.9976C14.7911 43.9976 14.1817 44.1026 13.7193 44.3127C13.278 44.5227 12.8999 44.7328 12.5848 44.9432L11.6812 43.6194C11.8493 43.4725 12.0593 43.3251 12.3117 43.1782C12.5637 43.0312 12.8368 42.905 13.173 42.7789C13.5092 42.6527 13.8874 42.5477 14.3075 42.4846C14.7276 42.4007 15.2112 42.3584 15.7574 42.3584C17.06 42.3584 18.0899 42.6735 18.825 43.304C19.5606 43.9345 19.9387 44.817 19.9387 45.9723V50.7418V51.8343C19.9387 52.1914 19.9387 52.4856 19.9599 52.738H18.153L18.1103 51.5831Z" fill="white"/>
<path d="M21.8532 44.9023V43.7466C21.8532 43.4104 21.8532 43.0742 21.832 42.7172H23.7021L23.7652 44.2302C23.8913 44.0621 24.0594 43.8728 24.2483 43.6627C24.4376 43.4527 24.6684 43.2634 24.9416 43.0745C25.2147 42.9064 25.5298 42.7595 25.9079 42.6544C26.2861 42.5283 26.6854 42.4863 27.1475 42.4863C28.4712 42.4863 29.4376 42.8645 30.0893 43.642C30.7198 44.4194 31.0348 45.4489 31.0348 46.7727V52.824H29.0809V46.9196C29.0809 45.974 28.8709 45.2808 28.4716 44.8395C28.0723 44.3983 27.5052 44.1882 26.7697 44.1671C26.2022 44.1671 25.7402 44.2933 25.362 44.5245C24.9839 44.7557 24.6896 45.0496 24.4584 45.4281C24.2272 45.7851 24.0591 46.2264 23.9752 46.6888C23.8702 47.1512 23.8282 47.6344 23.8282 48.1176V52.8032H21.8743V44.903H21.8532V44.9023Z" fill="white"/>
<path d="M32.8828 38.3252H34.8159V46.8559L39.0603 42.6958L41.3924 42.7169L37.5896 46.4358L41.9598 52.8022H39.6485L36.2236 47.7384L34.8159 49.0833V52.8022H32.8828V38.3252Z" fill="white"/>
<path d="M53.7884 47.0033L51.456 40.6368L49.0816 47.0033H53.7884ZM50.4476 38.3252H52.5697L58.2428 52.8022H55.9316L54.4397 48.7679H48.4934L47.0015 52.8022H44.8164L50.4476 38.3252Z" fill="white"/>
<path d="M59.0625 38.3252H61.0168V52.8022H59.0625V38.3252Z" fill="white"/>
<path d="M64.882 51.1215C65.092 51.1846 65.3444 51.2477 65.6383 51.3107C65.9322 51.3738 66.3738 51.4158 66.962 51.4158C67.5295 51.4158 68.0338 51.3315 68.4751 51.1426C68.9375 50.9745 69.3156 50.7014 69.6519 50.3863C69.9669 50.0501 70.2193 49.6719 70.3874 49.2095C70.5555 48.7471 70.6394 48.2639 70.6605 47.7176C70.6605 47.2552 70.5974 46.814 70.4924 46.3939C70.3874 45.9738 70.2193 45.5956 69.9673 45.2594C69.7361 44.9443 69.421 44.6712 69.0636 44.4819C68.7063 44.2927 68.2654 44.1876 67.7399 44.1876C67.2567 44.1876 66.8362 44.2719 66.5004 44.4396C66.143 44.6077 65.8491 44.8178 65.6179 45.0909C65.3867 45.3641 65.1978 45.6791 65.0928 46.0154C64.9666 46.3724 64.9246 46.7297 64.9246 47.1079V51.1211H64.882V51.1215ZM62.9492 38.3252H64.9031V43.8091C65.0081 43.6829 65.1343 43.536 65.3232 43.3678C65.5125 43.1997 65.7225 43.0528 65.9957 42.9266C66.2688 42.7796 66.5631 42.6746 66.8993 42.5904C67.2356 42.5061 67.6137 42.4642 68.0338 42.4642C68.7901 42.4642 69.4414 42.5904 70.0089 42.8635C70.5763 43.1367 71.0595 43.494 71.4588 43.9772C71.8581 44.4396 72.152 45.0067 72.3413 45.6372C72.5306 46.2677 72.6356 46.9398 72.6356 47.6753C72.6356 48.4736 72.5094 49.2091 72.2155 49.8604C71.9424 50.5329 71.543 51.0999 71.0598 51.5835C70.5555 52.0667 69.9673 52.4449 69.2737 52.6972C68.5805 52.9704 67.803 53.0965 66.9624 53.0965C66.143 53.0965 65.3655 53.0334 64.6723 52.9073C63.9579 52.7811 63.3905 52.613 62.9704 52.4449V38.3252H62.9492Z" fill="white"/>
<path d="M74.1708 42.7167H76.1247V52.8024H74.1708V42.7167ZM74.0234 38.7031H76.2085V40.8882H74.0234V38.7031Z" fill="white"/>
<path d="M78.1406 38.3252H80.0949V52.8022H78.1406V38.3252Z" fill="white"/>
<path d="M88.3122 48.033C88.2491 48.0119 88.144 47.9911 87.9759 47.9699C87.8078 47.9488 87.6189 47.928 87.4085 47.9068C87.1773 47.8857 86.9673 47.8857 86.7153 47.8649C86.4633 47.8438 86.2321 47.8437 86.0009 47.8437C85.4546 47.8437 85.0134 47.9068 84.656 48.033C84.3198 48.1592 84.0466 48.3273 83.8577 48.5162C83.6685 48.7055 83.5215 48.9363 83.4584 49.1675C83.3745 49.3987 83.3534 49.6299 83.3534 49.84C83.3534 50.3862 83.5426 50.8063 83.9208 51.0795C84.299 51.3526 84.8033 51.4996 85.4758 51.4996C85.8539 51.4996 86.2113 51.4365 86.5475 51.2895C86.8838 51.1633 87.178 50.9952 87.4512 50.7644C87.7243 50.5544 87.9136 50.302 88.0817 50.0081C88.2287 49.7138 88.3129 49.4199 88.3129 49.1256V48.033H88.3122ZM88.3329 51.5838C87.9548 52.0881 87.4504 52.4663 86.8411 52.7183C86.2317 52.9703 85.6016 53.0965 84.9499 53.0965C84.5298 53.0965 84.1093 53.0334 83.7104 52.9283C83.2903 52.8233 82.9121 52.6341 82.5759 52.3821C82.2397 52.1301 81.9665 51.8146 81.7565 51.3945C81.5464 50.9952 81.4414 50.512 81.4414 49.9238C81.4414 48.8313 81.8196 47.9699 82.5759 47.3183C83.3322 46.667 84.4248 46.3519 85.8535 46.3307C86.0848 46.3307 86.3367 46.3307 86.5891 46.3519C86.8411 46.373 87.0934 46.373 87.3246 46.3938C87.5558 46.415 87.7659 46.415 87.934 46.4358C88.1021 46.4569 88.2283 46.4569 88.3122 46.4777V46.1203C88.3122 45.364 88.081 44.8385 87.6189 44.5023C87.1565 44.166 86.5472 44.0191 85.77 44.0191C85.0137 44.0191 84.4044 44.1241 83.942 44.3342C83.5007 44.5442 83.1225 44.7543 82.8075 44.9647L81.9038 43.6409C82.0719 43.494 82.282 43.3466 82.5343 43.1997C82.7863 43.0527 83.0595 42.9265 83.3957 42.8004C83.7319 42.6742 84.1101 42.5691 84.5302 42.5061C84.9503 42.4222 85.4338 42.3799 85.9801 42.3799C87.2827 42.3799 88.3125 42.695 89.0477 43.3255C89.804 43.956 90.1614 44.8385 90.1614 45.9938V50.7633V51.8558C90.1614 52.2128 90.1614 52.5071 90.1826 52.7595H88.3545L88.3329 51.5838Z" fill="white"/>
<path d="M99.3646 44.9436C99.2177 44.8386 98.9445 44.6705 98.5664 44.4812C98.1671 44.2919 97.6208 44.1869 96.8856 44.1869C96.4024 44.1869 95.9612 44.2708 95.583 44.4389C95.1837 44.607 94.8267 44.859 94.5324 45.1744C94.2381 45.4899 94.0073 45.8888 93.8391 46.3512C93.671 46.8136 93.5872 47.3387 93.5872 47.9062C93.5872 48.3894 93.6502 48.8306 93.7553 49.2719C93.8815 49.692 94.0496 50.0701 94.2804 50.3856C94.5112 50.701 94.8267 50.953 95.1841 51.1419C95.5622 51.31 96.0035 51.415 96.5078 51.415C97.0122 51.415 97.4534 51.3312 97.8104 51.1419C98.1678 50.9526 98.4617 50.7218 98.6929 50.4275C98.9241 50.1544 99.0711 49.8393 99.1972 49.5031C99.3023 49.1668 99.3654 48.8518 99.3654 48.5575V44.9436H99.3646ZM99.3646 51.5201C99.2808 51.6039 99.1754 51.7513 99.0072 51.9194C98.8391 52.1086 98.6291 52.2768 98.3348 52.4445C98.0616 52.6126 97.7466 52.7807 97.3684 52.9069C96.9903 53.0331 96.5702 53.0962 96.0866 53.0962C95.4561 53.0962 94.8471 52.97 94.3004 52.7392C93.7542 52.4872 93.271 52.1509 92.8717 51.6885C92.4723 51.2473 92.1573 50.701 91.9261 50.0497C91.6949 49.3984 91.5898 48.684 91.5898 47.8854C91.5898 46.9398 91.758 46.1204 92.0942 45.4272C92.4304 44.7339 92.8505 44.1665 93.376 43.7252C93.8803 43.284 94.4478 42.9689 95.036 42.7589C95.6453 42.5488 96.2128 42.4646 96.7379 42.4646C97.4734 42.4646 98.0405 42.5484 98.4398 42.7166C98.8391 42.8847 99.1542 43.0316 99.3854 43.1159V38.3252H101.339V50.596V51.7516C101.339 52.0879 101.339 52.4241 101.36 52.7811H99.4485L99.3646 51.5201Z" fill="white"/>
<path d="M158.007 0H114.387V26.4324C121.888 22.041 130.608 19.5197 139.916 19.5197C149.875 19.5197 159.162 22.3984 167 27.3572V8.97199C167 4.0132 162.966 0 158.007 0Z" fill="white"/>
<path d="M132.438 25.0459C125.84 25.0459 119.684 26.8528 114.41 29.9835V43.62C114.41 48.5788 118.423 52.6128 123.382 52.6128H166.981C163.388 36.8331 149.289 25.0459 132.438 25.0459Z" fill="white"/>
</svg>
