<svg width="14" height="16" viewBox="0 0 14 16" fill="none" xmlns="http://www.w3.org/2000/svg">
<path fill-rule="evenodd" clip-rule="evenodd" d="M5.83594 8.6665C5.83594 8.39037 6.0598 8.1665 6.33594 8.1665H9.66927C9.9454 8.1665 10.1693 8.39037 10.1693 8.6665C10.1693 8.94264 9.9454 9.1665 9.66927 9.1665H6.33594C6.0598 9.1665 5.83594 8.94264 5.83594 8.6665ZM3.83594 8.6665C3.83594 8.39037 4.0598 8.1665 4.33594 8.1665H4.34192C4.61807 8.1665 4.84192 8.39037 4.84192 8.6665C4.84192 8.94264 4.61807 9.1665 4.34192 9.1665H4.33594C4.0598 9.1665 3.83594 8.94264 3.83594 8.6665ZM3.83594 11.3332C3.83594 11.057 4.0598 10.8332 4.33594 10.8332H7.66927C7.9454 10.8332 8.16927 11.057 8.16927 11.3332C8.16927 11.6093 7.9454 11.8332 7.66927 11.8332H4.33594C4.0598 11.8332 3.83594 11.6093 3.83594 11.3332ZM9.16327 11.3332C9.16327 11.057 9.38714 10.8332 9.66327 10.8332H9.66927C9.9454 10.8332 10.1693 11.057 10.1693 11.3332C10.1693 11.6093 9.9454 11.8332 9.66927 11.8332H9.66327C9.38714 11.8332 9.16327 11.6093 9.16327 11.3332Z" fill="#E17B7B"/>
<path fill-rule="evenodd" clip-rule="evenodd" d="M3 0.833252C3.27614 0.833252 3.5 1.05711 3.5 1.33325V2.66659C3.5 2.94273 3.27614 3.16659 3 3.16659C2.72386 3.16659 2.5 2.94273 2.5 2.66659V1.33325C2.5 1.05711 2.72386 0.833252 3 0.833252ZM11 0.833252C11.2761 0.833252 11.5 1.05711 11.5 1.33325V2.66659C11.5 2.94273 11.2761 3.16659 11 3.16659C10.7239 3.16659 10.5 2.94273 10.5 2.66659V1.33325C10.5 1.05711 10.7239 0.833252 11 0.833252Z" fill="#E17B7B"/>
<path fill-rule="evenodd" clip-rule="evenodd" d="M6.32744 1.5H7.67517C8.9843 1.49999 10.0218 1.49998 10.8338 1.618C11.6728 1.73995 12.3432 1.99671 12.867 2.56291C13.3856 3.12356 13.6161 3.83195 13.7265 4.71967C13.8346 5.58954 13.8346 6.70433 13.8346 8.12673V8.53993C13.8346 9.96233 13.8346 11.0771 13.7265 11.947C13.6161 12.8347 13.3856 13.5431 12.867 14.1037C12.3432 14.6699 11.6728 14.9267 10.8338 15.0487C10.0218 15.1667 8.9843 15.1667 7.67517 15.1667H6.32744C5.01834 15.1667 3.98085 15.1667 3.16883 15.0487C2.32981 14.9267 1.6594 14.6699 1.13566 14.1037C0.617056 13.5431 0.386536 12.8347 0.276136 11.947C0.167956 11.0771 0.167962 9.96233 0.167969 8.54V8.12667C0.167962 6.70433 0.167956 5.58953 0.276136 4.71967C0.386536 3.83195 0.617056 3.12356 1.13566 2.56291C1.6594 1.99671 2.32981 1.73995 3.16883 1.618C3.98085 1.49998 5.01834 1.49999 6.32744 1.5ZM3.31266 2.60761C2.59949 2.71126 2.18078 2.90572 1.86976 3.24195C1.55363 3.58372 1.36678 4.05277 1.26849 4.84309C1.16888 5.64405 1.16797 6.6966 1.16797 8.16213V8.50453C1.16797 9.97007 1.16888 11.0226 1.26849 11.8236C1.36678 12.6139 1.55363 13.0829 1.86976 13.4247C2.18078 13.7609 2.59949 13.9554 3.31266 14.0591C4.04448 14.1654 5.00922 14.1667 6.36797 14.1667H7.63464C8.99337 14.1667 9.9581 14.1654 10.69 14.0591C11.4031 13.9554 11.8218 13.7609 12.1328 13.4247C12.449 13.0829 12.6358 12.6139 12.7341 11.8236C12.8337 11.0226 12.8346 9.97007 12.8346 8.50453V8.16213C12.8346 6.6966 12.8337 5.64405 12.7341 4.84309C12.6358 4.05277 12.449 3.58372 12.1328 3.24195C11.8218 2.90572 11.4031 2.71126 10.69 2.60761C9.9581 2.50124 8.99337 2.5 7.63464 2.5H6.36797C5.00922 2.5 4.04448 2.50124 3.31266 2.60761Z" fill="#E17B7B"/>
<path fill-rule="evenodd" clip-rule="evenodd" d="M0.5 5.33325C0.5 5.05711 0.72386 4.83325 1 4.83325H13C13.2761 4.83325 13.5 5.05711 13.5 5.33325C13.5 5.60939 13.2761 5.83325 13 5.83325H1C0.72386 5.83325 0.5 5.60939 0.5 5.33325Z" fill="#E17B7B"/>
</svg>
