<svg width="38" height="41" viewBox="0 0 38 41" fill="none" xmlns="http://www.w3.org/2000/svg">
<path d="M1.37593 0.809082C0.903551 1.28146 0.746094 2.06875 0.746094 3.01349V37.8117C0.746094 38.7565 1.06101 39.5438 1.53338 40.0161L1.69084 40.1736L21.2156 20.6488V20.3339L1.37593 0.809082Z" fill="url(#paint0_linear_6802_40227)"/>
<path d="M27.5144 27.2623L21.0586 20.8066V20.3342L27.5144 13.8784L27.6718 14.0359L35.3873 18.4447C37.5917 19.7044 37.5917 21.7513 35.3873 23.011L27.5144 27.2623Z" fill="url(#paint1_linear_6802_40227)"/>
<path d="M27.6705 27.1049L21.0573 20.4917L1.375 40.174C2.16229 40.9612 3.2645 40.9612 4.68162 40.3314L27.6705 27.1049Z" fill="url(#paint2_linear_6802_40227)"/>
<path d="M27.6705 13.8781L4.68162 0.809108C3.2645 0.0218183 2.16229 0.179276 1.375 0.966566L21.0573 20.4914L27.6705 13.8781Z" fill="url(#paint3_linear_6802_40227)"/>
<path opacity="0.2" d="M27.513 26.9473L4.68162 39.8588C3.42195 40.6461 2.31975 40.4887 1.53246 39.8588L1.375 40.0163L1.53246 40.1737C2.31975 40.8036 3.42195 40.961 4.68162 40.1737L27.513 26.9473Z" fill="black"/>
<path opacity="0.12" d="M1.37593 39.859C0.903551 39.3867 0.746094 38.5994 0.746094 37.6546V37.8121C0.746094 38.7568 1.06101 39.5441 1.53338 40.0165V39.859H1.37593ZM35.3869 22.5387L27.514 26.9475L27.6714 27.1049L35.3869 22.6961C36.4891 22.0663 36.9614 21.279 36.9614 20.4917C36.9614 21.279 36.3316 21.9088 35.3869 22.5387Z" fill="black"/>
<path opacity="0.25" d="M4.68254 0.966891L35.3869 18.4447C36.3316 19.0746 36.9614 19.7044 36.9614 20.4917C36.9614 19.7044 36.4891 18.9171 35.3869 18.2873L4.68254 0.809433C2.47813 -0.450231 0.746094 0.494516 0.746094 3.01384V3.1713C0.746094 0.809433 2.47813 -0.292773 4.68254 0.966891Z" fill="white"/>
<defs>
<linearGradient id="paint0_linear_6802_40227" x1="19.3261" y1="2.71432" x2="-7.10004" y2="29.1389" gradientUnits="userSpaceOnUse">
<stop stop-color="#00A0FF"/>
<stop offset="0.007" stop-color="#00A1FF"/>
<stop offset="0.26" stop-color="#00BEFF"/>
<stop offset="0.512" stop-color="#00D2FF"/>
<stop offset="0.76" stop-color="#00DFFF"/>
<stop offset="1" stop-color="#00E3FF"/>
</linearGradient>
<linearGradient id="paint1_linear_6802_40227" x1="38.2751" y1="20.4932" x2="0.174938" y2="20.4932" gradientUnits="userSpaceOnUse">
<stop stop-color="#FFE000"/>
<stop offset="0.409" stop-color="#FFBD00"/>
<stop offset="0.775" stop-color="#FFA500"/>
<stop offset="1" stop-color="#FF9C00"/>
</linearGradient>
<linearGradient id="paint2_linear_6802_40227" x1="24.0915" y1="24.1069" x2="-11.7428" y2="59.9412" gradientUnits="userSpaceOnUse">
<stop stop-color="#FF3A44"/>
<stop offset="1" stop-color="#C31162"/>
</linearGradient>
<linearGradient id="paint3_linear_6802_40227" x1="-3.51092" y1="-10.7231" x2="12.4915" y2="5.27934" gradientUnits="userSpaceOnUse">
<stop stop-color="#32A071"/>
<stop offset="0.069" stop-color="#2DA771"/>
<stop offset="0.476" stop-color="#15CF74"/>
<stop offset="0.801" stop-color="#06E775"/>
<stop offset="1" stop-color="#00F076"/>
</linearGradient>
</defs>
</svg>
