<svg width="159" height="162" viewBox="0 0 159 162" fill="none" xmlns="http://www.w3.org/2000/svg">
<g clip-path="url(#clip0_6802_40214)">
<path d="M81.2555 111.355C79.9021 109.567 78.4324 107.858 77.0593 106.07C74.023 102.573 70.8321 98.9397 67.2543 95.9276C66.8289 96.2777 66.384 96.6269 65.9586 96.977C64.7983 97.9481 63.6186 98.9006 62.4002 99.8335C60.5243 101.291 58.6871 102.806 56.7532 104.186C55.4575 105.176 54.0457 106.226 52.4986 106.751C51.8991 107.061 51.2803 107.294 50.6227 107.45C49.3076 107.741 47.9539 107.372 46.6581 107.159C44.4729 106.848 42.2682 107.294 40.2376 108.11C35.3254 110.209 31.0709 112.929 26.4875 115.358C21.9814 118.214 11.7511 123.558 10.5521 128.804C15.4255 129.853 23.1031 124.199 27.3577 121.731C28.9629 120.526 30.9548 120.215 32.8887 120.662C38.7098 121.944 41.4946 121.731 47.0256 119.458C49.0756 118.894 50.0425 121.828 48.0119 122.566C42.0361 125.073 38.3811 125.209 32.0959 123.83C31.0902 123.558 30.2199 123.83 29.3883 124.277C28.4214 125.092 27.319 125.889 26.9516 126.219C22.0975 130.066 17.05 133.642 12.4667 137.839C10.2813 139.763 8.07664 141.667 6.12339 143.823C5.07908 144.97 3.91873 146.097 3.29987 147.554C7.28373 148.254 11.7124 144.62 15 142.677C19.332 139.957 23.606 137.12 27.7638 134.128C28.8275 133.409 29.8718 132.651 30.9742 131.99C31.3223 131.738 31.7864 131.66 32.2119 131.757C33.0628 131.913 33.6623 132.846 33.4689 133.681C33.1014 134.944 31.593 135.371 30.6454 136.168C26.7195 138.966 22.6777 141.569 18.8292 144.484C15.5995 146.99 9.35301 150.527 8.21203 154.568C8.83083 154.899 9.60441 154.647 10.2233 154.51C16.083 152.703 21.0338 148.914 26.1974 145.728C30.2199 143.26 33.6236 140.171 37.6268 137.781C39.1353 137.256 40.4503 139.238 39.348 140.423C38.6712 141.103 37.8782 141.667 37.1434 142.269C33.1981 145.3 29.1176 148.175 25.0951 151.091C23.1225 152.82 17.8429 155.87 18.1523 158.668C21.6914 159.542 26.8742 155.482 29.8718 153.714C32.8307 151.77 35.8283 149.866 38.7292 147.846C40.9725 146.33 43.1578 144.737 45.2271 142.988C49.2109 140.132 53.0014 137.003 56.5598 133.642C64.6629 126.122 72.2051 117.787 81.2555 111.414V111.355ZM170.177 67.1514C171.86 65.9273 173.832 68.3366 172.15 69.7355C169.133 72.1643 166.077 74.5154 163.041 76.9442C153.642 84.3857 144.243 91.867 134.458 98.8037C126.664 104.847 118.387 110.306 110.032 115.494C104.231 119.4 98.7577 123.791 92.7822 127.424C91.6603 128.065 90.5383 128.745 89.4367 129.445C89.0108 129.717 88.5662 129.95 88.0828 130.086C87.2123 130.785 86.0904 131.194 84.6399 131.116C80.2695 130.824 74.5645 126.686 72.5726 122.702C67.3704 127.502 62.4582 132.612 57.256 137.392C49.8105 143.901 41.8814 149.827 33.5462 155.132C29.1176 157.833 23.0064 162.923 17.6108 161.855C14.8066 161.272 14.3618 158.299 15.3481 155.986C13.2208 156.919 10.9969 157.988 8.65682 157.949C4.30552 157.638 4.20882 153.499 6.54885 150.663C3.9574 151.382 -0.703311 150.819 0.0895925 147.127C0.785801 144.251 3.24186 142.25 5.15643 140.151C8.09598 137.237 11.2483 134.536 14.4392 131.893C12.9888 132.185 11.4997 132.262 9.9719 131.99C4.18949 130.281 9.19831 123.383 12.0992 121.168C19.4481 115.066 28.0539 110.753 36.4278 106.245C39.4253 104.768 42.6937 103.564 46.0973 103.817C47.6058 103.817 49.1723 104.652 50.6421 104.05C51.5704 103.564 52.4406 102.981 53.2915 102.378C53.2721 102.359 53.2528 102.321 53.2334 102.301C51.3576 100.183 49.443 97.8513 49.0756 94.9369C48.9595 93.6352 49.1529 92.3718 49.6171 91.2451C49.6171 91.206 49.6171 91.1865 49.6171 91.1669C50.294 88.369 52.8467 86.6985 54.9353 84.9881C57.7009 82.7153 60.5437 80.5194 63.3865 78.3627C66.3454 76.2059 69.0916 73.7771 72.1084 71.6786C77.9875 67.3456 83.6729 62.7407 89.7263 58.6408C93.7297 55.8234 97.5197 52.7146 101.543 49.9166C105.662 47.0993 109.762 44.3012 113.784 41.3479C121.771 35.2273 130.184 29.7285 138.132 23.5302C144.166 19.1584 150.219 14.806 156.157 10.2788C160.643 6.93673 165.265 3.76959 169.694 0.330416C171.337 -0.874263 173.387 1.49624 171.666 2.93408C169.287 4.79939 166.851 6.58699 164.375 8.3163C160.295 11.2891 156.195 14.2231 152.23 17.3514C147.241 21.0431 142.077 24.5406 137.165 28.3489C131.286 32.9734 124.943 36.9566 119.006 41.5033C113.049 46.1083 106.706 50.1692 100.615 54.5799C97.6941 56.8144 94.7737 59.0295 91.7957 61.1668C86.7678 64.5671 81.9905 68.3171 77.1753 71.9895C71.2962 76.2836 65.5911 80.8108 59.8087 85.2218C58.8805 85.882 57.9909 86.6008 57.1013 87.3009C66.3067 88.1948 75.2994 98.8037 80.753 105.448C84.6399 110.092 88.3724 115.125 89.8618 121.129C90.3063 122.489 90.4613 124.082 90.2868 125.578C92.0083 124.335 93.7492 123.13 95.4892 121.926C101.156 117.787 106.783 113.551 112.817 109.956C116.975 107.236 121.113 104.536 125.195 101.718C130.068 98.1036 134.941 94.4704 139.834 90.8755C150.18 83.259 160.082 75.0595 170.216 67.1514H170.177Z" fill="#004449"/>
</g>
<defs>
<clipPath id="clip0_6802_40214">
<rect width="159" height="162" fill="white"/>
</clipPath>
</defs>
</svg>
