<svg width="152" height="41" viewBox="0 0 152 41" fill="none" xmlns="http://www.w3.org/2000/svg">
<path d="M111.562 2.90488C111.562 1.3014 112.882 0 114.508 0H148.47C150.097 0 151.416 1.3014 151.416 2.90488V37.6469C151.416 39.2509 150.097 40.5513 148.47 40.5513H114.508C112.882 40.5513 111.562 39.2509 111.562 37.6475V2.90488Z" fill="#F3F5F6"/>
<path d="M0 33.968H16.6318V28.4465H6.01995V7.38319H0V33.968ZM25.0524 33.968V15.6569H19.0329V33.968H25.0524ZM22.0432 13.1573C24.1419 13.1573 25.4484 11.7511 25.4484 9.99289C25.4095 8.19636 24.1419 6.83008 22.0831 6.83008C20.0239 6.83008 18.6774 8.19689 18.6774 9.99289C18.6774 11.7511 19.9839 13.1573 22.0037 13.1573H22.0432ZM27.8469 33.968H33.8664V23.7419C33.8664 23.1946 33.9053 22.6473 34.0647 22.2575C34.4991 21.1641 35.4896 20.0313 37.1527 20.0313C39.3314 20.0313 40.203 21.7108 40.203 24.1711V33.9674H46.2213V23.4685C46.2213 17.8438 43.2516 15.2267 39.2909 15.2267C36.044 15.2267 34.618 17.062 33.8259 18.3124H33.8664V15.6569H27.8469C27.9264 17.3753 27.8469 33.968 27.8469 33.968ZM54.7134 7.38319H48.694V33.968H54.7134V28.0311L56.2178 26.116L60.9306 33.968H68.3355L60.4162 22.6011L67.3456 14.8682H60.0996C60.0996 14.8682 55.1495 21.7863 54.7134 22.6075V7.38319Z" fill="#F3F5F6"/>
<path d="M84.4314 26.3289C84.5109 25.8588 84.6297 24.9568 84.6297 23.9368C84.6297 19.2034 82.2533 14.3978 75.9967 14.3978C69.304 14.3978 66.2148 19.7496 66.2148 24.6037C66.2148 30.607 69.9772 34.3559 76.5505 34.3559C79.1647 34.3559 81.5795 33.9666 83.5604 33.146L82.7683 29.1264C81.144 29.671 79.4808 29.9438 77.4221 29.9438C74.6107 29.9438 72.1559 28.7765 71.9576 26.2896L84.4314 26.3279V26.3289ZM71.9182 22.2115C72.0765 20.649 73.1069 18.3435 75.6806 18.3435C78.4125 18.3435 79.0469 20.8048 79.0469 22.2115H71.9182ZM99.4874 7.38237V16.5852H99.4079C98.5364 15.2971 96.7149 14.4377 94.3006 14.4377C89.6666 14.4377 85.5881 18.1871 85.627 24.5925C85.627 30.5299 89.3105 34.3969 93.9035 34.3969C96.3988 34.3969 98.7741 33.3024 99.9629 31.1931H100.081L100.319 33.9671H105.665C105.586 32.678 105.506 30.4517 105.506 28.2643V7.38184H99.4868L99.4874 7.38237ZM99.4874 25.4913C99.4874 25.9593 99.4479 26.4289 99.368 26.8182C99.0129 28.4988 97.587 29.6694 95.8444 29.6694C93.3501 29.6694 91.7259 27.6389 91.7259 24.4362C91.7259 21.4292 93.1129 19.0072 95.8843 19.0072C97.7453 19.0072 99.0518 20.2958 99.4085 21.8966C99.4874 22.2493 99.4874 22.6402 99.4874 22.9912V25.4913Z" fill="#F3F5F6"/>
<path d="M123.64 33.9455V15.6345H117.621V33.9455H123.64ZM120.631 13.1348C122.73 13.1348 124.037 11.7287 124.037 9.9715C123.997 8.17443 122.73 6.80762 120.671 6.80762C118.611 6.80762 117.266 8.17443 117.266 9.9715C117.266 11.7287 118.572 13.1348 120.592 13.1348H120.631H120.631ZM126.972 33.9455H132.991V23.721C132.991 23.1743 133.03 22.6265 133.189 22.2361C133.624 21.1421 134.614 20.0099 136.278 20.0099C138.455 20.0099 139.327 21.6889 139.327 24.1507V33.9455H145.346V23.4466C145.346 17.8224 142.376 15.2053 138.416 15.2053C135.169 15.2053 133.743 17.0401 132.951 18.2899H132.991V15.635H126.972C127.051 17.3528 126.972 33.9455 126.972 33.9455Z" fill="#6D7D5C"/>
</svg>
