<svg width="20" height="20" viewBox="0 0 20 20" fill="none" xmlns="http://www.w3.org/2000/svg">
<path d="M18.4392 10.8437H10.617C10.4442 10.8437 10.3045 10.7037 10.3045 10.5312C10.3045 10.3587 10.4442 10.2187 10.617 10.2187H18.1267V9.24683H10.6133C10.4405 9.24683 10.3008 9.10683 10.3008 8.93433C10.3008 8.76183 10.4405 8.62183 10.6133 8.62183H18.4392C18.612 8.62183 18.7517 8.76183 18.7517 8.93433V10.5312C18.7517 10.7037 18.612 10.8437 18.4392 10.8437Z" fill="#F9F8F6"/>
<path d="M3.4375 10.8437H1.5625C1.38969 10.8437 1.25 10.7037 1.25 10.5312V8.93433C1.25 8.76183 1.38969 8.62183 1.5625 8.62183H3.43875C3.61156 8.62183 3.75125 8.76183 3.75125 8.93433C3.75125 9.10683 3.61156 9.24683 3.43875 9.24683H1.875V10.2187H3.4375C3.61031 10.2187 3.75 10.3587 3.75 10.5312C3.75 10.7037 3.61031 10.8437 3.4375 10.8437Z" fill="#F9F8F6"/>
<path d="M16.8753 9.24688H12.5587C12.4531 9.24688 12.3546 9.19345 12.2968 9.1047C12.239 9.01626 12.2299 8.90438 12.2731 8.80782L13.0181 7.12563C13.0681 7.01251 13.1803 6.9397 13.3037 6.9397H16.1306C16.2543 6.9397 16.3662 7.01251 16.4162 7.12563L17.1612 8.80782C17.2043 8.90438 17.1949 9.01626 17.1374 9.1047C17.0796 9.19345 16.9812 9.24688 16.8756 9.24688H16.8753ZM13.0387 8.62188H16.3953L15.9271 7.5647H13.5068L13.0387 8.62188Z" fill="#F9F8F6"/>
<path d="M18.7492 2.14687V5.65938H10.6836V2.14687C10.6836 1.65312 11.0867 1.25 11.5805 1.25H17.8523C18.3461 1.25 18.7492 1.65312 18.7492 2.14687Z" fill="#F9F8F6"/>
<path d="M10.6836 6.28442H18.7492V6.6688C18.7492 7.16255 18.3461 7.56567 17.8523 7.56567H11.5805C11.0867 7.56567 10.6836 7.16255 10.6836 6.6688V6.28442Z" fill="#F9F8F6"/>
<path d="M2.5 17.8122C2.32719 17.8122 2.1875 17.6722 2.1875 17.4997V10.5312C2.1875 10.3588 2.32719 10.2188 2.5 10.2188C2.67281 10.2188 2.8125 10.3588 2.8125 10.5312V17.4997C2.8125 17.6722 2.67281 17.8122 2.5 17.8122Z" fill="#F9F8F6"/>
<path d="M17.7842 17.8122H11.8633C11.6905 17.8122 11.5508 17.6722 11.5508 17.4997V10.53C11.5508 10.3575 11.6905 10.2175 11.8633 10.2175H17.7842C17.957 10.2175 18.0967 10.3575 18.0967 10.53V17.4997C18.0967 17.6722 17.957 17.8122 17.7842 17.8122ZM12.1758 17.1872H17.4717V10.8425H12.1758V17.1872Z" fill="#F9F8F6"/>
<path d="M17.7842 13.1665H11.8633C11.6905 13.1665 11.5508 13.0265 11.5508 12.854C11.5508 12.6815 11.6905 12.5415 11.8633 12.5415H17.7842C17.957 12.5415 18.0967 12.6815 18.0967 12.854C18.0967 13.0265 17.957 13.1665 17.7842 13.1665Z" fill="#F9F8F6"/>
<path d="M17.7842 15.4893H11.8633C11.6905 15.4893 11.5508 15.3493 11.5508 15.1768C11.5508 15.0043 11.6905 14.8643 11.8633 14.8643H17.7842C17.957 14.8643 18.0967 15.0043 18.0967 15.1768C18.0967 15.3493 17.957 15.4893 17.7842 15.4893Z" fill="#F9F8F6"/>
<path d="M14.9142 11.9548H14.457C14.2842 11.9548 14.1445 11.8148 14.1445 11.6423C14.1445 11.4698 14.2842 11.3298 14.457 11.3298H14.9142C15.087 11.3298 15.2267 11.4698 15.2267 11.6423C15.2267 11.8148 15.087 11.9548 14.9142 11.9548Z" fill="#F9F8F6"/>
<path d="M14.9142 14.3271H14.457C14.2842 14.3271 14.1445 14.1871 14.1445 14.0146C14.1445 13.8421 14.2842 13.7021 14.457 13.7021H14.9142C15.087 13.7021 15.2267 13.8421 15.2267 14.0146C15.2267 14.1871 15.087 14.3271 14.9142 14.3271Z" fill="#F9F8F6"/>
<path d="M14.9142 16.6997H14.457C14.2842 16.6997 14.1445 16.5597 14.1445 16.3872C14.1445 16.2147 14.2842 16.0747 14.457 16.0747H14.9142C15.087 16.0747 15.2267 16.2147 15.2267 16.3872C15.2267 16.5597 15.087 16.6997 14.9142 16.6997Z" fill="#F9F8F6"/>
<path d="M9.59641 16.4504L7.33578 15.9941V13.1782H8.48172C9.45922 13.1782 10.2542 12.3832 10.2542 11.4057C10.2542 11.2332 10.1145 11.0932 9.94172 11.0932H7.33578V10.486H8.40359C9.19953 10.486 9.84703 9.83852 9.84703 9.04258V6.61477C9.84703 5.05789 8.58016 3.79102 7.02328 3.79102C5.46641 3.79102 4.19984 5.05758 4.19984 6.61477V9.04258C4.19984 9.83852 4.84734 10.486 5.64328 10.486H6.71078V11.0932H4.10547C3.93266 11.0932 3.79297 11.2332 3.79297 11.4057C3.79297 12.3829 4.58797 13.1782 5.56516 13.1782H6.71078V15.9945L4.45047 16.4507C4.30484 16.4801 4.19984 16.6082 4.19984 16.757V17.5001C4.19984 17.6726 4.33953 17.8126 4.51234 17.8126C4.68516 17.8126 4.82484 17.6726 4.82484 17.5001V17.0126L6.71078 16.6316V17.5001C6.71078 17.6726 6.85047 17.8126 7.02328 17.8126C7.19609 17.8126 7.33578 17.6726 7.33578 17.5001V16.6316L9.22203 17.0126V17.5001C9.22203 17.6726 9.36172 17.8126 9.53453 17.8126C9.70734 17.8126 9.84703 17.6726 9.84703 17.5001V16.757C9.84703 16.6082 9.74203 16.4798 9.59641 16.4504Z" fill="#F9F8F6"/>
</svg>
