<svg width="161" height="48" viewBox="0 0 161 48" fill="none" xmlns="http://www.w3.org/2000/svg">
<path d="M56.9328 18.8304C56.9328 14.0642 60.4079 10.7361 66.7231 10.7361C70.5765 10.7361 73.7296 11.9664 75.4379 13.1716C75.6823 13.3437 76.1185 13.7612 75.857 14.5377C75.5218 15.3739 74.9072 16.6316 74.4662 17.4486C74.2095 17.9246 73.554 17.8619 73.2182 17.6917C72.0014 17.0751 70.0056 16.032 68.1722 15.8397C67.7079 15.7891 67.2408 15.7689 66.774 15.7792C65.1593 15.8152 63.8103 16.3759 63.3352 17.6078C63.2421 17.8409 63.1902 18.0884 63.1818 18.3392C63.1374 19.9626 65.3967 20.5496 68.1336 21.0198C73.2217 21.8915 77.0712 23.3833 77.0712 28.6204C77.0712 33.0678 73.5366 37.0872 66.6112 36.964C62.0457 36.8717 58.8067 35.329 57.0711 33.8321C57.0119 33.7813 56.3512 33.1084 56.7054 32.2991C57.1107 31.2573 57.7948 30.0633 58.3316 29.4294C58.6301 29.0221 59.4178 28.9575 59.8273 29.2113C61.258 30.1003 63.6125 31.5259 66.3265 31.6204C66.5408 31.6278 66.7531 31.6291 66.9615 31.6236C69.4028 31.5645 70.8798 30.6388 70.8489 29.0794C70.8226 27.7056 68.8869 26.9031 65.8045 26.3222C60.8884 25.3962 56.9334 23.7757 56.9334 18.8304M101.595 25.6168C98.128 25.6622 94.9494 26.6098 94.8578 29.319C94.8568 31.4689 96.6008 32.5249 99.0485 32.3866C101.397 32.1605 103.187 31.1421 103.976 29.7909C104.268 29.2901 104.312 27.4162 104.295 26.6152C104.29 26.4448 103.953 26.1222 103.805 26.0601C103.069 25.7497 102.524 25.6538 101.594 25.6162M90.0594 14.7001C91.6805 13.2494 94.8948 10.9915 100.017 11.1105C106.777 11.251 110.349 14.4202 110.681 22.0015C110.818 25.1279 110.591 33.8485 110.537 36.0212C110.529 36.3329 110.424 36.5484 110.004 36.5565C108.89 36.6012 106.318 36.5835 105.137 36.568C104.54 36.5391 104.471 36.2432 104.463 35.9334C104.458 35.7308 104.441 35.1299 104.428 34.6401C104.422 34.3802 104.178 34.3876 104.115 34.4542C102.529 36.1473 99.9324 36.965 97.1708 36.965C92.9732 36.965 88.7886 34.4956 88.8014 29.6056C88.8143 24.5975 92.3653 22.1273 96.2663 21.5448C98.7642 21.1729 101.58 21.5036 103.712 22.3508C103.849 22.4055 104.127 22.3264 104.129 22.1331C104.138 21.4949 104.107 20.2788 103.985 19.7024C103.672 18.2337 102.446 17.052 99.8726 16.7335C99.3425 16.6683 98.8089 16.6467 98.2746 16.6892C96.2286 16.85 93.7664 18.4454 92.7468 19.0427C92.5068 19.1829 92.1312 19.0803 92.0096 18.9237C91.4145 18.1549 89.9189 15.9066 89.8011 15.5473C89.6834 15.189 89.8494 14.8873 90.0588 14.6988L90.0594 14.7001ZM112.91 24.0228C112.87 17.0381 117.737 11.1459 125.639 11.0941C130.57 11.0619 134.152 13.2974 134.784 14.3517C134.912 14.5994 134.846 14.8062 134.757 15.0555C134.34 15.9368 133.286 17.6396 132.534 18.6046C132.214 19.0156 131.867 18.6634 131.463 18.3949C130.343 17.6486 128.214 16.7361 126.119 16.7361C122.319 16.7368 119.488 19.3428 119.52 24.1373C119.549 28.7381 122.26 31.2666 126.132 31.3583C128.156 31.4091 130.118 30.2457 131.173 29.2927C131.504 29.0035 131.847 29.1482 132.225 29.4442C132.968 30.2036 134.034 31.376 134.625 32.183C135.012 32.6314 134.722 33.0701 134.583 33.2464C132.98 35.275 129.884 36.9823 125.786 37.0055C117.207 37.0656 112.951 31.0331 112.911 24.0237M153.865 36.6906C154.268 36.6604 158.565 36.0672 159.884 35.7652C160.212 35.6906 160.328 35.4152 160.145 35.1425C159.409 34.0379 157.472 30.9012 155.444 28.0932C153.578 25.5113 151.612 23.2405 150.976 22.3669C150.821 22.1546 150.829 21.9455 150.998 21.7809C152.208 20.5972 157.268 15.6358 159.171 13.5869C159.907 12.7898 159.465 12.4469 158.839 12.2607C157.631 11.9004 155.676 11.4514 154.565 11.2169C154.096 11.1179 153.531 11.1526 153.122 11.574C151.219 13.3479 145.414 19.1745 143.681 20.9163C143.369 21.2305 143.187 21.1607 143.186 20.7117C143.171 17.3537 143.105 2.97662 142.985 0.611856C142.977 0.299213 142.601 0.061836 142.389 0.0505783C141.299 -0.0063536 138.546 -0.0227579 137.461 0.0409286C137.157 0.075345 136.867 0.385093 136.84 0.646916C136.59 4.42822 136.947 32.1859 137.095 36.0688C137.106 36.3496 137.315 36.5674 137.581 36.5831C138.664 36.6459 141.341 36.6417 142.591 36.6182C143.206 36.6182 143.281 36.1859 143.281 36.1859L143.374 28.7375C143.374 28.7375 143.437 28.4062 143.54 28.2968C143.98 27.8224 145.199 26.5159 145.719 26.0109C145.844 25.8896 146.041 25.8983 146.168 26.0697C146.786 26.9028 148.547 29.6111 150.179 32.0299C151.679 34.2518 153.079 36.2239 153.177 36.3631C153.403 36.6848 153.666 36.6977 153.865 36.6915V36.6906H153.865ZM80.7757 36.6649C81.1536 36.6774 84.0211 36.6742 85.2916 36.6726C85.7194 36.6809 85.9417 36.357 85.9558 36.0711C86.2257 30.6269 86.1102 4.70645 85.9397 0.613464C85.9256 0.25965 85.7741 0.126809 85.5325 0.0946445C84.4421 -0.0513841 81.3434 -0.0172896 80.3501 0.242603C80.1558 0.293102 80.0413 0.440738 80.0352 0.630511C79.7921 11.1806 79.9561 35.5037 80.0076 35.9643C80.0587 36.4255 80.2999 36.6488 80.7763 36.6649H80.7757Z" fill="#F3F5F6"/>
<path d="M4.03122 25.8395C2.26408 25.853 0.767123 24.7999 0.215173 23.1563C0.194697 23.0942 0.175608 23.0317 0.15792 22.9688C-0.443564 20.8639 0.722735 18.6619 2.81313 17.9568L36.3418 6.7239C36.7399 6.60873 37.1519 6.54856 37.5663 6.54506C39.3804 6.53091 40.9186 7.60715 41.484 9.28551L41.5342 9.44762C42.1614 11.64 40.603 13.5969 38.7359 14.2241C38.7346 14.2251 38.3949 14.3399 5.39308 25.6076C4.95442 25.7571 4.49464 25.8354 4.03122 25.8395Z" fill="#F3F5F6"/>
<path d="M9.61851 42.3288C7.83754 42.3417 6.33544 41.3034 5.78992 39.6832C5.76922 39.6216 5.74991 39.5595 5.73203 39.497C5.12218 37.367 6.28719 35.1419 8.38467 34.4359L41.9146 23.1C42.3479 22.9552 42.7953 22.8813 43.2453 22.8771C45.0311 22.8636 46.6001 23.9546 47.1537 25.5931L47.2051 25.7636C47.529 26.8961 47.3376 28.1688 46.6937 29.1734C46.2138 29.9202 44.7001 30.5777 44.7001 30.5777L11.0428 42.086C10.5837 42.2414 10.1031 42.3235 9.61851 42.3294V42.3288Z" fill="#F3F5F6"/>
<path d="M37.5316 42.4015C36.6625 42.4098 35.8131 42.1429 35.105 41.6388C34.3969 41.1348 33.8665 40.4196 33.5898 39.5957L22.3997 6.35651L22.3437 6.16996C21.7374 4.05029 22.9034 1.83928 24.9931 1.13486C25.4113 0.994304 25.8436 0.920968 26.2787 0.917108C26.9253 0.912283 27.5509 1.05799 28.1401 1.34908C28.6255 1.58912 29.0587 1.92276 29.4147 2.33081C29.7706 2.73885 30.0425 3.21325 30.2144 3.72671L41.4036 36.963L41.4361 37.0698C42.0646 39.2705 40.9012 41.4828 38.8115 42.1873C38.3987 42.3252 37.9668 42.3974 37.5316 42.4015Z" fill="#F3F5F6"/>
<path d="M20.8982 47.9999C20.0287 48.0082 19.1788 47.741 18.4704 47.2365C17.762 46.7321 17.2314 46.0164 16.9548 45.1919L5.76756 11.954C5.59421 11.4412 5.52371 10.8993 5.56009 10.3592C5.59646 9.81915 5.739 9.29156 5.97954 8.80666C6.22008 8.32176 6.55389 7.88906 6.96188 7.53334C7.36986 7.17762 7.844 6.90586 8.35715 6.73362C8.77055 6.59542 9.20306 6.52292 9.63892 6.51876C10.5082 6.51017 11.3578 6.77703 12.066 7.28106C12.7743 7.78509 13.3047 8.50042 13.5814 9.3245L24.769 42.5637C24.9424 43.0767 25.0129 43.6189 24.9764 44.1592C24.9399 44.6995 24.7971 45.2273 24.5563 45.7124C24.3155 46.1974 23.9813 46.6302 23.5729 46.9858C23.1645 47.3415 22.69 47.6131 22.1765 47.785C21.7639 47.9233 21.3321 47.9957 20.897 47.9996L20.8982 47.9999Z" fill="#F3F5F6"/>
<path d="M32.0128 34.9154L39.8154 32.2477L37.2647 24.6729L29.4531 27.3126L32.0128 34.9154Z" fill="#F3F5F6"/>
<path d="M15.4058 40.5941L23.2077 37.9267L20.6378 30.2939L12.8281 32.9347L15.4058 40.5941Z" fill="#F3F5F6"/>
<path d="M26.461 18.4162L34.2642 15.752L31.7435 8.26562L23.9258 10.8848L26.461 18.4162Z" fill="#F3F5F6"/>
<path d="M9.85127 24.087L17.6545 21.4227L15.1028 13.8408L7.28516 16.4597L9.85127 24.087Z" fill="#F3F5F6"/>
</svg>
