<svg width="15" height="12" viewBox="0 0 15 12" fill="none" xmlns="http://www.w3.org/2000/svg">
<path fill-rule="evenodd" clip-rule="evenodd" d="M8.41203 0.21104C8.59116 0.130174 8.80103 0.161754 8.94843 0.291747L14.4291 5.12508C14.9558 5.58955 14.9558 6.41061 14.4291 6.87508L8.94843 11.7084C8.80103 11.8384 8.59116 11.87 8.41203 11.7891C8.2329 11.7083 8.11776 11.5299 8.11776 11.3334V8.83395C6.8193 8.83821 5.70896 8.87395 4.7009 9.16281C3.62768 9.47035 2.65314 10.0719 1.73203 11.3001C1.6029 11.4723 1.37809 11.5425 1.17392 11.4744C0.969745 11.4064 0.832031 11.2153 0.832031 11.0001C0.832031 7.92095 1.85133 5.93748 3.3765 4.73488C4.7725 3.63413 6.52462 3.24184 8.11776 3.17685V0.666754C8.11776 0.470214 8.2329 0.2919 8.41203 0.21104ZM9.11776 1.77436V3.53342C9.11776 3.88235 8.8367 4.16363 8.49043 4.16745C6.9161 4.18482 5.25469 4.52739 3.99568 5.52015C2.9773 6.32315 2.1686 7.59428 1.9151 9.60488C2.6933 8.89221 3.52749 8.45881 4.42544 8.20148C5.68508 7.84055 7.0525 7.83375 8.48383 7.83341C8.83156 7.83335 9.11776 8.11481 9.11776 8.46675V10.2258L13.7677 6.12508C13.8429 6.05875 13.8429 5.94141 13.7677 5.87508L9.11776 1.77436Z" fill="#365327"/>
</svg>
