<svg width="20" height="20" viewBox="0 0 20 20" fill="none" xmlns="http://www.w3.org/2000/svg">
<path d="M7.54437 13.906H2.5C1.81062 13.906 1.25 13.3454 1.25 12.656V12.2341C1.25 12.0616 1.39 11.9216 1.5625 11.9216H8.62344C8.79594 11.9216 8.93594 12.0616 8.93594 12.2341C8.93594 12.4066 8.79594 12.5466 8.62344 12.5466H1.875V12.656C1.875 13.0007 2.15531 13.281 2.5 13.281H7.54437C7.71688 13.281 7.85687 13.421 7.85687 13.5935C7.85687 13.766 7.71688 13.906 7.54437 13.906Z" fill="#F9F8F6"/>
<path d="M1.5625 12.5469C1.39 12.5469 1.25 12.4069 1.25 12.2344V5.71875C1.25 5.02937 1.81062 4.46875 2.5 4.46875H11.3406C12.03 4.46875 12.5906 5.02937 12.5906 5.71875C12.5906 5.89125 12.4506 6.03125 12.2781 6.03125C12.1056 6.03125 11.9656 5.89125 11.9656 5.71875C11.9656 5.37406 11.6853 5.09375 11.3406 5.09375H2.5C2.15531 5.09375 1.875 5.37406 1.875 5.71875V12.2344C1.875 12.4069 1.735 12.5469 1.5625 12.5469Z" fill="#F9F8F6"/>
<path d="M6.92031 16.1074H3.4375C3.265 16.1074 3.125 15.9674 3.125 15.7949C3.125 15.6224 3.265 15.4824 3.4375 15.4824H6.92031C7.09281 15.4824 7.23281 15.6224 7.23281 15.7949C7.23281 15.9674 7.09281 16.1074 6.92031 16.1074Z" fill="#F9F8F6"/>
<path d="M4.80517 16.1074C4.78236 16.1074 4.75955 16.1049 4.73611 16.0999C4.56767 16.0621 4.46205 15.8949 4.49986 15.7265L4.99517 13.5252C5.03298 13.3568 5.20017 13.2518 5.36861 13.289C5.53705 13.3268 5.64267 13.494 5.60486 13.6624L5.10955 15.8637C5.07705 16.009 4.9483 16.1074 4.80517 16.1074Z" fill="#F9F8F6"/>
<path d="M5.65161 8.59056L5.5338 8.13306C5.45818 7.83962 5.2813 7.59524 5.04849 7.42743C5.15036 7.28181 5.2113 7.10524 5.2113 6.91431C5.2113 6.41899 4.80818 6.01587 4.31286 6.01587C3.81755 6.01587 3.41443 6.41899 3.41443 6.91431C3.41443 7.10524 3.47536 7.28181 3.57755 7.42774C3.34474 7.59556 3.16818 7.83993 3.09255 8.13337L2.97474 8.59087C2.95068 8.68431 2.97099 8.78399 3.03036 8.86024C3.08943 8.93681 3.18068 8.98149 3.27755 8.98149H5.34911C5.44568 8.98149 5.53693 8.93681 5.5963 8.86024C5.65536 8.78399 5.67599 8.68462 5.65193 8.59087L5.65161 8.59056Z" fill="#F9F8F6"/>
<path d="M5.65181 12.1556L5.53368 11.7012C5.45899 11.4065 5.28212 11.1612 5.04837 10.9931C5.15024 10.8475 5.21118 10.6709 5.21118 10.48C5.21118 9.98467 4.80806 9.58154 4.31274 9.58154C3.81743 9.58154 3.41431 9.98467 3.41431 10.48C3.41431 10.6712 3.47524 10.8475 3.57743 10.9934C3.56462 11.0028 3.54993 11.0097 3.53743 11.0197C3.31899 11.1912 3.16118 11.4334 3.09368 11.6994L2.97493 12.1556C2.95056 12.2494 2.97087 12.349 3.03024 12.4256C3.08931 12.5022 3.18056 12.5469 3.27743 12.5469H5.34931C5.44618 12.5469 5.53743 12.5019 5.59649 12.4256C5.65556 12.349 5.67618 12.2494 5.65181 12.1556Z" fill="#F9F8F6"/>
<path d="M6.92188 12.4658C6.74938 12.4658 6.60938 12.3258 6.60938 12.1533V4.78052C6.60938 4.60802 6.74938 4.46802 6.92188 4.46802C7.09437 4.46802 7.23438 4.60802 7.23438 4.78052V12.1533C7.23438 12.3258 7.09437 12.4658 6.92188 12.4658Z" fill="#F9F8F6"/>
<path d="M6.92062 8.98071H1.5625C1.39 8.98071 1.25 8.84071 1.25 8.66821C1.25 8.49571 1.39 8.35571 1.5625 8.35571H6.92062C7.09312 8.35571 7.23312 8.49571 7.23312 8.66821C7.23312 8.84071 7.09312 8.98071 6.92062 8.98071Z" fill="#F9F8F6"/>
<path d="M18.056 14.5888C17.8116 13.2257 16.7394 12.1926 15.4119 11.9676C15.9272 11.4098 16.2197 10.677 16.2197 9.89447C16.2197 8.20291 14.8435 6.82666 13.1522 6.82666C11.461 6.82666 10.0844 8.20291 10.0844 9.89447C10.0844 10.677 10.3772 11.4098 10.8922 11.9676C9.99411 12.1188 9.20004 12.6404 8.70379 13.4254C8.47473 13.7835 8.32098 14.1748 8.24692 14.5892L7.55973 18.382C7.54317 18.4732 7.56785 18.567 7.62723 18.6379C7.6866 18.7092 7.77442 18.7501 7.86723 18.7501H18.436C18.5285 18.7501 18.6166 18.7092 18.676 18.6379C18.7354 18.5667 18.76 18.4729 18.7435 18.382L18.056 14.5888Z" fill="#F9F8F6"/>
<path d="M10.2816 17.8129C10.2631 17.8129 10.2444 17.8113 10.2256 17.8079C10.056 17.7772 9.94314 17.6144 9.97376 17.4447L10.4081 15.0447C10.4388 14.875 10.6003 14.7613 10.7713 14.7929C10.941 14.8235 11.0538 14.9863 11.0231 15.156L10.5888 17.556C10.5616 17.7069 10.43 17.8129 10.2816 17.8129Z" fill="#365327"/>
<path d="M16.024 17.8127C15.8756 17.8127 15.744 17.7068 15.7168 17.5558L15.2825 15.1558C15.2515 14.9861 15.3643 14.8233 15.5343 14.7927C15.7053 14.7608 15.8668 14.8749 15.8975 15.0446L16.3318 17.4446C16.3628 17.6143 16.25 17.7771 16.08 17.8077C16.0609 17.8111 16.0425 17.8127 16.024 17.8127Z" fill="#365327"/>
<path d="M13.1537 12.9033C12.9478 12.9033 12.7424 12.8736 12.5606 12.818C12.3956 12.7671 12.3031 12.5924 12.3537 12.4274C12.4046 12.2624 12.579 12.1696 12.7443 12.2205C12.9909 12.2964 13.3159 12.2964 13.5649 12.2205C13.7296 12.1696 13.9046 12.2633 13.9553 12.4283C14.0056 12.5933 13.9124 12.768 13.7474 12.8186C13.5618 12.8752 13.3621 12.9039 13.1537 12.9039V12.9033Z" fill="#365327"/>
<path d="M7.30969 3.96937H6.53156C5.78187 3.96937 5.17188 3.35938 5.17188 2.60969C5.17188 1.86 5.78187 1.25 6.53156 1.25H7.30969C8.05937 1.25 8.66937 1.86 8.66937 2.60969C8.66937 3.35938 8.05937 3.96937 7.30969 3.96937ZM6.53156 1.875C6.12656 1.875 5.79688 2.20469 5.79688 2.60969C5.79688 3.01469 6.12656 3.34437 6.53156 3.34437H7.30969C7.71469 3.34437 8.04437 3.01469 8.04437 2.60969C8.04437 2.20469 7.71469 1.875 7.30969 1.875H6.53156Z" fill="#F9F8F6"/>
<path d="M8.62172 5.0931H5.2186C5.09735 5.0931 4.98704 5.0231 4.93579 4.91341C4.88454 4.80372 4.90079 4.67404 4.97829 4.58091L5.95641 3.40372C6.06672 3.27122 6.2636 3.25279 6.39641 3.3631C6.52922 3.47341 6.54735 3.67029 6.43704 3.8031L5.88454 4.4681H7.95547L7.40016 3.8006C7.28985 3.66779 7.30797 3.47091 7.44047 3.36029C7.57297 3.24966 7.77016 3.26779 7.88079 3.4006L8.86204 4.58029C8.93954 4.67341 8.9561 4.8031 8.90454 4.91279C8.85297 5.02247 8.74266 5.09247 8.62172 5.09247V5.0931Z" fill="#F9F8F6"/>
<path d="M7.00781 2.92212H6.82812C6.65563 2.92212 6.51562 2.78212 6.51562 2.60962C6.51562 2.43712 6.65563 2.29712 6.82812 2.29712H7.00781C7.18031 2.29712 7.32031 2.43712 7.32031 2.60962C7.32031 2.78212 7.18031 2.92212 7.00781 2.92212Z" fill="#F9F8F6"/>
<path d="M17.0792 16.875H15.8555C15.683 16.875 15.543 16.735 15.543 16.5625C15.543 16.39 15.683 16.25 15.8555 16.25H17.0792C17.2517 16.25 17.3917 16.39 17.3917 16.5625C17.3917 16.735 17.2517 16.875 17.0792 16.875Z" fill="#365327"/>
<path d="M10.4464 16.875H9.22266C9.05016 16.875 8.91016 16.735 8.91016 16.5625C8.91016 16.39 9.05016 16.25 9.22266 16.25H10.4464C10.6189 16.25 10.7589 16.39 10.7589 16.5625C10.7589 16.735 10.6189 16.875 10.4464 16.875Z" fill="#365327"/>
</svg>
