<svg width="139" height="46" viewBox="0 0 139 46" fill="none" xmlns="http://www.w3.org/2000/svg">
<path d="M60.2578 44.343H48.9157L56.0044 0.778436H67.3476L60.2578 44.343ZM39.374 0.778436L28.561 30.7424L27.2814 24.29L27.2826 24.2924L23.4662 4.70092C23.4662 4.70092 23.0047 0.778436 18.0858 0.778436H0.209759L0 1.51609C0 1.51609 5.46654 2.65344 11.8642 6.49552L21.7182 44.3441H33.5357L51.5808 0.778436H39.374ZM128.585 44.343H139L129.92 0.777272H120.802C116.592 0.777272 115.566 4.02387 115.566 4.02387L98.6506 44.343H110.474L112.838 37.8719H127.257L128.585 44.343ZM116.105 28.9327L122.064 12.6298L125.417 28.9327H116.105ZM99.5374 11.2547L101.156 1.89948C101.156 1.89948 96.1615 0 90.9548 0C85.3263 0 71.96 2.46 71.96 14.4221C71.96 25.6768 87.6476 25.8166 87.6476 31.7283C87.6476 37.64 73.5763 36.5807 68.9325 32.8528L67.2463 42.6346C67.2463 42.6346 72.3108 45.0946 80.0485 45.0946C87.7886 45.0946 99.4652 41.087 99.4652 30.1796C99.4652 18.8526 83.6366 17.798 83.6366 12.8733C83.6377 7.94752 94.6838 8.58029 99.5374 11.2547Z" fill="#F3F5F6"/>
</svg>
