<svg width="202" height="40" viewBox="0 0 202 40" fill="none" xmlns="http://www.w3.org/2000/svg">
<path d="M178.632 7.21154V27.618L163.767 7.19595L161.331 7.19235V32.0368H164.063V12.0823L178.63 32.0536L181.371 32.056V7.21154H178.632ZM147.117 6.63477C140.208 6.63477 135.379 11.978 135.379 19.6272C135.379 27.2883 140.208 32.6303 147.117 32.6303C154.019 32.6303 158.833 27.2883 158.833 19.6272C158.833 11.978 154.021 6.63477 147.117 6.63477ZM147.117 29.9983C141.854 29.9983 138.165 25.733 138.165 19.6272C138.165 13.5261 141.854 9.26082 147.117 9.26082C152.373 9.26082 156.039 13.5261 156.039 19.6272C156.04 25.733 152.373 29.9983 147.117 29.9983ZM187.201 29.6254V20.433H200.728V18H187.201V9.62535H201.648V7.19475H184.445V32.0584H201.816V29.6254H187.201Z" fill="#F3F5F6"/>
<path d="M127.679 32.0791L119.824 21.2967L111.972 32.0791H108.737L118.184 19.052L109.558 7.21191H112.792L119.824 16.8696L126.849 7.21191H130.08L121.46 19.052L130.909 32.0791H127.679ZM84.4337 19.9921C83.9457 19.5742 83.4039 19.2253 82.8232 18.9548C84.608 17.9751 85.7785 16.1237 85.7785 13.9761C85.7785 12.3849 85.1986 7.21191 77.7841 7.21191H67.7974V17.932H64.4696C63.857 18.751 63.2615 19.5829 62.6836 20.4273H67.7974V32.0767L77.7841 32.0779C83.1944 32.0779 86.5553 29.2996 86.5553 24.8185C86.5553 22.8615 85.8236 21.196 84.4337 19.9921ZM70.5582 9.80679H77.7841C79.7409 9.80679 83.0153 10.2996 83.0153 13.7591C83.0153 16.3743 81.1071 17.9332 77.7841 17.9332H70.5582V9.80679ZM77.7829 29.4842H70.557V20.4309H77.7829C80.5236 20.4309 83.8004 21.196 83.8004 24.7645C83.8016 28.8691 80.0326 29.4842 77.7829 29.4842Z" fill="#F3F5F6"/>
<path d="M99.5458 6.63672C92.639 6.63672 87.8098 11.98 87.8098 19.6291C87.8098 27.2902 92.6378 32.6299 99.5458 32.6299C106.448 32.6299 111.262 27.2902 111.262 19.6291C111.262 11.98 106.448 6.63672 99.5458 6.63672ZM99.5458 29.999C94.2827 29.999 90.5968 25.7338 90.5968 19.6291C90.5968 13.528 94.2827 9.26397 99.5458 9.26397C104.801 9.26397 108.468 13.528 108.468 19.6291C108.468 25.7338 104.801 29.999 99.5458 29.999ZM66.4547 32.0759L57.0004 19.0499L65.6269 7.21109H62.3952L55.3626 16.8711L48.336 7.21109H45.1138L53.7343 19.0499L44.2812 32.0759H47.52L55.3674 21.2959L63.2195 32.0759H66.4547Z" fill="#F3F5F6"/>
<path d="M40.0135 20C40.0135 31.0462 31.0561 40 20.0067 40C8.95737 40 0 31.0462 0 20C0 8.95497 8.95737 0 20.0067 0C31.0561 0 40.0135 8.95377 40.0135 20Z" fill="#F3F5F6"/>
<path d="M40.0135 20C40.0135 31.0462 31.0561 40 20.0067 40C8.95737 40 0 31.0462 0 20C0 8.95497 8.95737 0 20.0067 0C31.0561 0 40.0135 8.95377 40.0135 20Z" fill="#F3F5F6"/>
<path d="M40.0135 20C40.0135 31.0462 31.0561 40 20.0067 40C8.95737 40 0 31.0462 0 20C0 8.95497 8.95737 0 20.0067 0C31.0561 0 40.0135 8.95377 40.0135 20Z" fill="#F3F5F6"/>
<path d="M40.0135 20C40.0135 31.0462 31.0561 40 20.0067 40C8.95737 40 0 31.0462 0 20C0 8.95497 8.95737 0 20.0067 0C31.0561 0 40.0135 8.95377 40.0135 20Z" fill="#F3F5F6"/>
<path d="M14.9322 11.2393C12.7228 13.9469 3.46897 24.9511 4.28964 32.3916C4.86126 33.1231 5.491 33.809 6.15631 34.4541C6.05906 28.7583 12.6695 22.6632 17.8283 18.0622L14.931 11.2393H14.9322Z" fill="#F3F5F6"/>
<path d="M14.9308 11.2393C12.7228 13.9467 3.46881 24.9506 4.28966 32.3914C4.86079 33.1234 5.49046 33.8087 6.15599 34.4532C6.0592 28.7586 12.669 22.662 17.8283 18.0619L14.9308 11.2393Z" fill="#687A58"/>
<path d="M9.49957 2.9893C8.35096 3.69192 7.2754 4.50849 6.28906 5.42675C9.46253 6.03641 12.6456 8.86149 14.3912 11.2017C15.911 13.6044 16.7367 15.8066 17.8096 18.0796C18.5562 17.4345 19.3114 16.7996 20.075 16.175L20.0702 6.30283C17.7057 4.81709 13.7974 2.86209 9.53661 2.9893C9.52705 2.9953 9.50794 2.9833 9.49957 2.9893Z" fill="#F3F5F6"/>
<path d="M9.49957 2.9893C8.35096 3.69192 7.2754 4.50849 6.28906 5.42675C9.46253 6.03641 12.6456 8.86149 14.3912 11.2017C15.911 13.6044 16.7367 15.8066 17.8096 18.0796C18.5562 17.4345 19.3114 16.7996 20.075 16.175L20.0702 6.30283C17.7057 4.81709 13.7974 2.86209 9.53661 2.9893C9.52705 2.9953 9.50794 2.9833 9.49957 2.9893Z" fill="#687A58"/>
<path d="M25.0909 11.2473C27.292 13.9573 36.515 24.9711 35.6967 32.4164C35.1274 33.1479 34.5001 33.835 33.8372 34.4813C33.9332 28.7807 27.3453 22.6796 22.2031 18.075L25.0909 11.2473Z" fill="#F3F5F6"/>
<path d="M25.0889 11.2471C27.2896 13.9568 36.513 24.9713 35.6949 32.4172C35.1224 33.1475 34.5009 33.8374 33.8347 34.4819C33.9312 28.7813 27.3432 22.6807 22.201 18.0755L25.0889 11.2471Z" fill="#687A58"/>
<path d="M30.502 2.99028C31.6468 3.69418 32.7191 4.51139 33.7031 5.4298C30.5401 6.03998 27.3664 8.86746 25.6278 11.2097C24.113 13.6144 23.2889 15.8184 22.2195 18.0946C21.4954 17.4712 20.7594 16.837 19.9615 16.1884L19.9663 6.30663C22.3231 4.81962 26.2184 2.86296 30.4651 2.99028C30.4735 2.99629 30.4937 2.98428 30.502 2.99028Z" fill="#F3F5F6"/>
<path d="M30.502 2.99028C31.6468 3.69418 32.7191 4.51139 33.7031 5.4298C30.5401 6.03998 27.3664 8.86746 25.6278 11.2097C24.113 13.6144 23.2889 15.8184 22.2195 18.0946C21.4954 17.4712 20.7594 16.837 19.9615 16.1884L19.9663 6.30663C22.3231 4.81962 26.2184 2.86296 30.4651 2.99028C30.4735 2.99629 30.4937 2.98428 30.502 2.99028Z" fill="#687A58"/>
</svg>
